<svg xmlns="http://www.w3.org/2000/svg" viewBox="0 0 1108.6 429.64"><defs><style>.cls-1{fill:#0062ff;}</style></defs><g id="Layer_2" data-name="Layer 2"><g id="Layer_1-2" data-name="Layer 1"><path class="cls-1" d="M397.29,162.55A202.84,202.84,0,0,0,304.47,49l11.67,31.73a183.67,183.67,0,1,1-287,202.36,182.64,182.64,0,0,1-2-107.74L17.82,142.9a203.65,203.65,0,1,0,379.47,19.65ZM146.53,51.38a182.73,182.73,0,0,1,127.08,4.79l-7.3-24A203.31,203.31,0,0,0,38.62,106.76l8.29,23.65A182.83,182.83,0,0,1,146.53,51.38Z"/><path class="cls-1" d="M322.71,127.61,278.76,8.12,271.29,0l-3.94,1.29,40.94,134.36-10.92,3.58-11-33.6A243.65,243.65,0,0,0,65.89,177.84l11,33.6L66,215,19.5,82.46l-3.94,1.3-1.22,11L49.59,217.06c2.82,9.8,9.62,25.05,14.74,33.67l9.61-.32,3.37,10.3,14.2-4.65,13.8,42.13A243.58,243.58,0,0,0,325.78,226L312,183.86l14.19-4.65-3.37-10.31,7.93-5.42C329.77,153.5,326.24,137.18,322.71,127.61Zm-19.74,93a224,224,0,0,1-182.46,59.76L88.7,183.24a223.94,223.94,0,0,1,182.47-59.76Z"/><circle class="cls-1" cx="146.86" cy="196.96" r="20"/><circle class="cls-1" cx="232.39" cy="168.95" r="20"/><path class="cls-1" d="M252.39,220.22a118.46,118.46,0,0,1-91.32,29.91,7.5,7.5,0,1,1,1.53-14.93,103.42,103.42,0,0,0,79.73-26.11,7.5,7.5,0,0,1,10.06,11.13Z"/><path class="cls-1" d="M222.38,428.78A203.63,203.63,0,0,1,127.72,415l-9.37-3.77,3.86-9.33a174.07,174.07,0,0,1,251.26-82.29l8.63,5.23-5.32,8.59a203.65,203.65,0,0,1-154.4,95.4ZM145,400a183.77,183.77,0,0,0,209-68.46A154.07,154.07,0,0,0,145,400Z"/><path class="cls-1" d="M475.18,111.4c0-15,10.76-25.41,25.4-25.41S526,96.4,526,111.4c0,14.79-10.75,25.4-25.4,25.4S475.18,126.19,475.18,111.4Z"/><rect class="cls-1" x="475.18" y="164.92" width="50.8" height="174.07" rx="25.4"/><path class="cls-1" d="M567.67,106.07A20.08,20.08,0,0,1,587.75,86h63.68c52.26,0,91.76,15.19,91.76,62.56,0,23.26-12.85,46.95-34.23,54.7v1.55c26.92,6.53,47.19,25.8,47.19,59.79,0,51-42.49,74.4-97.86,74.4H587.75a20.08,20.08,0,0,1-20.08-20.08Zm80.43,82.82c31.52,0,45.17-12.76,45.17-32.95,0-22-14.77-30.4-44.5-30.4H618.7v63.35Zm5.54,110.56c34.16,0,52.59-12.2,52.59-37.95,0-24.4-18-34.72-52.59-34.72H618.7v72.67Z"/><path class="cls-1" d="M784.4,243.45C784.4,179.8,828.45,143,876.49,143s92.08,36.76,92.08,100.41c0,63.44-44.05,100.19-92.08,100.19S784.4,306.89,784.4,243.45Zm132,0c0-35.7-14.22-59.21-40-59.21s-40,23.51-40,59.21,14.22,59,40,59S916.44,279.16,916.44,243.45Z"/><path class="cls-1" d="M1008.06,272V187.79h-7a19.67,19.67,0,0,1-19.67-19.68h0a19.67,19.67,0,0,1,18.27-19.62l11.18-.8,3.68-31.8a22.26,22.26,0,0,1,22.11-19.69h0a22.25,22.25,0,0,1,22.25,22.25v29.24h27.25a20,20,0,0,1,20.05,20.05h0a20,20,0,0,1-20.05,20h-27.25v83.79c0,22.09,9.29,32,25.93,32,.92,0,1.85,0,2.8-.12a19.19,19.19,0,0,1,20.43,14.8l.12.52a19,19,0,0,1-15.08,22.88,119.18,119.18,0,0,1-21.74,2C1025.63,343.64,1008.06,314.77,1008.06,272Z"/></g></g></svg>