<svg xmlns="http://www.w3.org/2000/svg" viewBox="0 0 981.65 168.52"><defs><style>.cls-1{fill:#fff;}.cls-2{fill:#2e2e2e;}.cls-3{fill:#109cf3;}</style></defs><g id="Layer_2" data-name="Layer 2"><g id="Layer_1_copy" data-name="Layer 1 copy"><path class="cls-1" d="M91.6,164c-6.46,0-11.86-1.58-15.61-4.58l-.13-.11c-10.12-8.76-14.13-23.59-16.78-37.56-1.22,0-2.45,0-3.67,0-5.67,16.81-5.25,24.63-3.82,28.25l1.65,4.19-4.19,1.65a56.63,56.63,0,0,1-20.25,4.31c-7.83,0-14.26-2.32-18.58-6.72-3.85-3.9-5.82-9.32-5.72-15.65.1-8.39,5.75-21.91,13.56-40.62C27.29,75.1,39.94,44.8,48.43,10.06l.7-2.85L52,6.69A34.69,34.69,0,0,1,58,6.2c8.33,0,18.7,2.53,24.38,9.26A40,40,0,0,1,107,6.83c14.36,0,26.93,5.62,35.4,15.85a43.14,43.14,0,0,1,9,35.68c-4.42,22.32-25.68,44.08-53.56,55.29,5.2,10.24,15,20.76,26,23.51l3.82,1-.43,3.91C125.68,156.38,105.53,164,91.6,164ZM95,42c-2.76,0-11.15,0-16.11,15.48-2.76,8.86-6,18.93-9.71,28.88,19.18-6.18,33.49-19.58,36.5-30.09,1.1-4,.64-7.67-1.33-10.26S99.06,42,95,42Z"/><path class="cls-2" d="M58,10.7c8.92,0,20.25,3.35,23.23,11.63,6.6-6.21,15.2-11,25.8-11,27.8,0,44.4,23,40,46.19-4.2,21.2-26.2,43.4-55.2,53.6,4.8,12.4,16.6,26.8,31,30.4-1.2,10.8-18,18-31.2,18-5.2,0-9.8-1.2-12.8-3.6-10.4-9-13.8-26.4-16-38.8-3.4.2-7,.2-10.6.2-5,14-7.8,26.8-4.8,34.4a52,52,0,0,1-18.6,4c-11.6,0-20-5.8-19.8-17.8.2-17,28.4-63.8,43.8-126.8A30.49,30.49,0,0,1,58,10.7M61.8,92.92c24.6-4.8,44.2-21.4,48.2-35.4,3.2-11.6-4-20-15-20-10.8,0-17,8-20.4,18.6-3.8,12.2-8,25-12.8,36.8M58,1.7a38.78,38.78,0,0,0-6.74.56l-5.78,1L44.06,9c-8.41,34.4-21,64.52-30.15,86.5C5.6,115.39.11,128.54,0,137.82c-.12,7.52,2.3,14.05,7,18.84,5.18,5.27,12.72,8.06,21.79,8.06a61.23,61.23,0,0,0,21.9-4.62l8.38-3.3-3.31-8.38c-.6-1.53-1.38-5.71,1.09-15.69,2.9,11.45,7.42,22.53,16,30l.14.11.13.11c4.56,3.65,10.93,5.57,18.42,5.57,17.92,0,38.36-9.94,40.15-26l.87-7.82L125,132.79c-8.23-2.06-15.78-9.21-20.74-17,26.92-12.26,47.14-34.09,51.58-56.53V59.2a47.54,47.54,0,0,0-10-39.39C136.53,8.53,122.73,2.33,107,2.33A44.29,44.29,0,0,0,82.84,9.64C76,3.93,66.11,1.7,58,1.7ZM83.18,58.84c4-12.32,9.67-12.32,11.82-12.32,2.59,0,4.69.82,5.77,2.24s1.29,3.68.57,6.33c-2.22,7.67-11.7,17.12-24.54,23.37,2.35-6.83,4.48-13.5,6.38-19.62Z"/><path class="cls-1" d="M157.69,159c-12-.3-21.38-3.94-27.85-10.81-6.93-7.36-10.2-18.05-9.74-31.79.13-10.83,7.91-30.69,16.14-51.72,8-20.54,17.15-43.83,16.86-54.45L153,5.45l4.8.18c16.16.59,33.67,6.54,35.83,16.76,1.4,6.09-.65,14.93-5.29,28.06a58.6,58.6,0,0,1,22-4.23l1.61,0c10.38,0,18.92,4,24.69,11.51,7.95,10.37,9.75,26.55,4.94,44.39C232.94,134,198,159,162,159ZM167,113.16c-2.15,10.53-1.26,14.4-.13,15.79.18.21.56.67,2,.67,9.12-.15,20.57-14.71,25.3-25.15,5.89-12.5,7.62-24.89,5.5-28.23-.19-.3-.38-.61-1.36-.62C190.17,75.83,172.12,94,167,113.16Z"/><path class="cls-2" d="M157.6,10.12c16.4.6,30.2,6.6,31.6,13.21,1.6,7-3,20.39-9.2,36.59a54.11,54.11,0,0,1,30.4-9.2l1.52,0c23.29,0,32.72,22.63,25.28,50.23-7.6,28.2-39,53.6-75.2,53.6h-4.2c-23.6-.6-34-15-33.2-38,.2-20.8,33.6-84.19,33-106.4m11.2,124c12-.2,24.6-17.2,29.4-27.8,6.6-14,11.2-35.2,0-35.2-11.4.2-30.4,21.4-35.6,41-1.4,6.8-4.2,22,6.2,22M148.35.78l.26,9.59c.26,9.71-8.68,32.54-16.56,52.69-8.74,22.32-16.28,41.6-16.44,53.26-.51,15,3.18,26.72,11,35,7.32,7.78,17.76,11.89,31,12.23H162a91,91,0,0,0,53.69-18c15.16-11.24,25.88-26.25,30.2-42.26,5.18-19.21,3.1-36.81-5.71-48.31-6.65-8.68-16.42-13.27-28.26-13.27l-1.7,0a64,64,0,0,0-14.86,1.76c2.9-9.55,3.9-16.47,2.63-22.09-1.36-6.25-6.7-11.5-15.46-15.2a71.47,71.47,0,0,0-24.6-5.06L148.35.78Zm23,113.41c2.11-7.77,7.13-16.68,13.47-23.9,4.68-5.33,8.68-8.17,11.19-9.4,0,4.39-1.89,13-6,21.6l0,.06,0,.06c-4.66,10.3-13.9,20.51-19.79,22.25-.14-1.64,0-4.79,1.16-10.67Z"/><path class="cls-1" d="M242,159.62c-7.45,0-13.6-2.24-17.77-6.49-3.86-3.92-5.84-9.41-5.73-15.88.09-9.45,6.55-24.89,14.73-44.44C244,67.18,257.31,35.27,258.1,10.18l.15-4.52,4.51.17c14.13.51,36.54,5.72,36.54,17.5.31,20.34-10.06,45.87-20.08,70.56-9.13,22.48-18.56,45.72-14.64,55.57l1.67,4.19-4.2,1.66C254.78,158.17,248,159.62,242,159.62Z"/><path class="cls-2" d="M262.6,10.33c16.4.59,32.2,6.39,32.2,13,.6,39.79-43.4,105.19-34.4,127.79a51,51,0,0,1-18.4,4c-11.2,0-19.2-5.8-19-17.8.2-20.8,38.2-82.8,39.6-127M253.89,1l-.29,9c-.76,24.26-13.94,55.74-24.52,81-8.36,20-15,35.77-15.08,46.14-.12,7.69,2.31,14.29,7,19.08,5,5.12,12.29,7.83,21,7.83a59.9,59.9,0,0,0,21.7-4.62l8.4-3.31-3.34-8.4c-.72-1.8-1.4-6.63,2.12-18.65,2.85-9.77,7.54-21.32,12.51-33.55,10.18-25.09,20.71-51,20.41-72.34C303.71,7.09,277,1.85,262.93,1.33l-9-.33Z"/><path class="cls-1" d="M353,161c-14.27,0-24.93-9.35-32-18.63-12.11,10.11-24,15.23-35.41,15.23-11,0-26.09-3.75-33-12l-3.43-4.06,4.58-2.71c16.37-9.7,30.86-22,45.4-38.51C292.53,85.75,285,69.57,275,55.55L272.6,52.3l3-2.71c3-2.68,7.37-4.17,12.43-4.17,8.39,0,20.12,4,26.3,11.68a149.64,149.64,0,0,1,9.63,13.38c8.17-9.59,15.94-17.47,24.68-20.77a25.63,25.63,0,0,1,8.79-1.49c13.46,0,28.37,9.72,31.75,17.76l1.42,3.4-3.05,2.07c-17.6,11.91-28.95,26.63-39.93,40.85,6.68,11.67,14.76,24.38,24.66,33.52l2.9,2.68-2.28,3.22C368.68,157.63,361.44,161,353,161Z"/><path class="cls-2" d="M288,49.92c7.8,0,17.8,3.8,22.8,10a161.49,161.49,0,0,1,12.6,18.2c9.6-11.6,17.8-20.8,26.8-24.2a20.92,20.92,0,0,1,7.2-1.2c11.8,0,25,8.8,27.6,15-19.2,13-31.2,29.2-42.8,44.2,8,14.2,16.6,27.6,27,37.2-3.4,4.8-9.4,7.4-16.2,7.4-13.6,0-24.2-10.2-31.2-20.8-9.8,9-22.4,17.4-36.2,17.4-11.2,0-24.2-4-29.6-10.4,20.6-12.2,36-27.2,48.4-41.6-7.2-16-15-33.2-25.8-48.2,2.2-2,5.6-3,9.4-3m0-9c-6.18,0-11.67,1.9-15.46,5.34l-5.94,5.41,4.69,6.51C280.52,71,287.6,85.85,293.81,99.53,280.23,114.62,266.65,126,251.41,135l-9.15,5.42,6.86,8.13c7.92,9.39,24,13.59,36.48,13.59,11.34,0,23-4.51,34.72-13.42,9.55,11,20.71,16.82,32.68,16.82,9.92,0,18.5-4.08,23.54-11.2l4.57-6.45-5.81-5.36c-8.74-8.07-16.1-19.23-22.31-29.84C363.2,99.47,374,86,390,75.18L396.15,71l-2.85-6.8c-2.95-7-10.86-12.21-14.12-14.11-7.07-4.13-14.81-6.41-21.78-6.41a29.87,29.87,0,0,0-10.28,1.75l-.05,0-.05,0c-8.2,3.09-15.38,9.55-22.61,17.59-2.23-3.21-4.43-6.15-6.63-8.86C310.41,45.1,297.17,40.92,288,40.92Z"/><path class="cls-3" d="M452.59,159.62c-7.45,0-13.59-2.24-17.77-6.49-3.85-3.92-5.83-9.41-5.73-15.88,0-7.44,4.18-18.83,10-32.94l-4,0c-9.61,0-17.17.34-23.81.75-5.47,13.48-13.93,35.4-10.33,44.41l1.68,4.2-4.21,1.66a55.44,55.44,0,0,1-20.05,4.31c-7.45,0-13.59-2.24-17.77-6.49-3.85-3.92-5.83-9.41-5.72-15.88,0-8.32,5.19-21.59,12.71-39.3A18.79,18.79,0,0,1,361,87.5c-1.74-7.63,1.38-15.72,4.88-20.75l2.23-3.19,3.48,1.74a54.8,54.8,0,0,0,8.15,3.2C389,45.88,396,26.92,396.5,9.19l.13-4.53,4.53.17c14.12.51,36.53,5.72,36.53,17.5.2,16.15-6.51,33.48-14.47,53.42,8.16.61,16.62.91,25.23.91h2.32c9.5-23.11,19.19-46.92,19.93-67.5l.16-4.5,4.5.17c14.12.51,36.53,5.72,36.53,17.5.31,20.46-10.63,46.37-21.21,71.43-9.54,22.58-19.39,45.93-15.51,55.7l1.68,4.19-4.21,1.66A55.44,55.44,0,0,1,452.59,159.62Z"/><path class="cls-2" d="M475.19,9.33c16.4.59,32.2,6.39,32.2,13C508,62.12,462,128.52,471,151.12a51,51,0,0,1-18.4,4c-11.2,0-19.2-5.8-19-17.8,0-7.6,5.4-21.2,12.2-37.4-3.83-.09-7.38-.13-10.68-.13-11.34,0-19.79.47-26.92.93-8.8,21.6-15.39,40.4-11.39,50.4a51.06,51.06,0,0,1-18.41,4c-11.19,0-19.19-5.8-19-17.8,0-8.2,6.19-23.2,13.8-41-12.4-7-8.2-20.4-3.61-27a65.46,65.46,0,0,0,12.8,4.6c9.41-22.8,18-44.4,18.6-64.59,16.4.59,32.2,6.39,32.2,13,.2,16.79-7.8,35.79-16.4,57.39,9.23.87,19.83,1.44,31.66,1.44,1.75,0,3.54,0,5.34,0,10.2-24.8,20.6-49.6,21.4-71.79M392.27,0,392,9.06c-.48,16-6.53,33.33-14.8,53.79-1.5-.59-2.68-1.13-3.58-1.58l-7-3.48-4.45,6.39c-2,2.82-8.18,12.91-5.58,24.32a22.82,22.82,0,0,0,5.62,10.58c-7.23,17.15-11.83,29.41-11.85,38.16-.12,7.68,2.31,14.27,7,19,5,5.12,12.3,7.83,21,7.83a59.82,59.82,0,0,0,21.7-4.62l8.42-3.32-3.36-8.4c-.61-1.53-1.27-5.55,1.25-15.24a211.24,211.24,0,0,1,8-23.18c5.22-.28,11.05-.51,18-.56-4.65,11.73-7.8,21.39-7.83,28.44-.11,7.68,2.32,14.26,7,19,5,5.12,12.3,7.83,21,7.83a59.82,59.82,0,0,0,21.7-4.62l8.41-3.31-3.35-8.4c-.7-1.77-1.33-6.53,2.37-18.56,3-9.8,7.91-21.42,13.1-33.72,10.76-25.46,21.88-51.8,21.57-73.26C516.3,6.09,489.64.85,475.52.33l-9-.33-.32,9c-.68,19-9.48,41.3-18.45,63.16-6.12,0-12.16-.18-18.06-.5,7.08-18,12.68-34,12.5-49.4C442.12,6.1,415.44.85,401.32.33L392.27,0Z"/><path class="cls-3" d="M520.07,159.12c-16.82,0-29.85-5.39-37.68-15.6-7.71-10-9.68-24.09-5.54-39.56A78.56,78.56,0,0,1,503.2,63.71a76.75,76.75,0,0,1,48.91-17.49l2.08,0c14.2,0,25.81,5.5,31.85,15.11,5.27,8.38,5.49,19,.61,29.17-9,18.87-37.42,30.68-61.76,32.24q4.17,3.11,11.9,3.11c11.24-.16,20.41-3.77,29.67-11.71l2.17-1.86,2.6,1.16c4,1.78,5.69,6,4.57,11.17-2.56,12-22.56,34.38-51.69,34.44C522.75,159.09,521.39,159.12,520.07,159.12Zm25.56-83.5c-7.83.14-14.94,8.74-19.94,18.55,10.21-2,24.4-6.39,24.4-15C550.09,77.33,550.09,75.63,545.63,75.62Z"/><path class="cls-2" d="M554.19,50.69c24.54,0,37.95,18,28.4,37.83-9,18.8-40.27,29.86-63.1,29.86-1,0-2,0-2.9-.06,2.4,7.6,9.2,12,20.2,12,14.2-.2,24.2-5.6,32.6-12.8,9.4,4.2-11.6,37-45.4,37-1.33.07-2.64.1-3.92.1-33.12,0-46.19-22.15-38.88-49.5,7.6-28.6,35-54.4,71-54.4l2,0m-36,49.23c13-1.6,36.4-6.4,36.4-20.8,0-5.6-3.4-8-9-8-13.6.2-23.2,18-27.4,28.8m36-58.23c-.72,0-1.45,0-2.17,0a81.22,81.22,0,0,0-51.66,18.5,83.09,83.09,0,0,0-27.86,42.59c-4.51,16.83-2.26,32.27,6.32,43.45,6.08,7.92,18.17,17.36,41.25,17.36,1.36,0,2.75,0,4.15-.1,29.7-.11,52.61-22.18,56-38,1.61-7.58-1.42-12.62-5.3-15.19,6.32-4.53,12.2-10.41,15.8-17.9,5.56-11.59,5.25-23.8-.86-33.51C583,48,570,41.69,554.19,41.69Zm-18.5,45.15c3.12-3.86,6.49-6.5,9.72-6.7-.79,2.19-4.06,4.61-9.72,6.7Z"/><path class="cls-3" d="M653.39,159.62c-7.5,0-13.66-2.22-17.8-6.44a20.11,20.11,0,0,1-5.44-11.57c-10.9,11.51-21.32,17.3-31.62,17.61-.55,0-1.13,0-1.71,0h0c-10.77,0-19.6-4.09-25.54-11.84-7.87-10.28-9.71-26.12-5-43.46,7.64-28.37,35.37-57.73,68.54-57.73,6.92,0,15.88.91,22.57,7.1.17-1.1.29-2.13.34-3l.24-4.42,4.42.17c14.84.55,33,4.95,35.23,15.56,2.41,10.24-4,25.31-10.67,41.26-7.11,16.87-15.17,36-10.95,46.61l1.67,4.19-4.2,1.66A56.25,56.25,0,0,1,653.39,159.62Zm-14.77-84c-13,.2-24.46,16.33-27.69,27.91-2.45,8.77-1.55,15.41.32,17.88a2.86,2.86,0,0,0,2.54,1.21c5.67,0,19.57-14.87,32.17-38.91,1.21-2.54,1.5-4.63.81-5.72S643.53,75.63,638.62,75.62Z"/><path class="cls-2" d="M662.19,50.52c16.2.6,29.6,5.4,31,12,4.6,19.6-30.4,66-21.4,88.6a51.89,51.89,0,0,1-18.4,4c-11.2,0-19.2-5.6-19-17.8a44.6,44.6,0,0,1,1.4-9.4c-11.4,15-24.2,26.4-37.4,26.8l-1.57,0c-23.49,0-33.66-22-26.23-49.63,7.6-28.2,34.4-54.4,64.2-54.4,12,0,20.4,3.4,24.6,13.4a60.88,60.88,0,0,0,2.8-13.6m-48.4,76.6c9.6,0,25.2-20.4,36.2-41.4,4.4-9.2-.2-14.6-11.4-14.6-15.2.2-28.2,17.6-32,31.2-3.4,12.2-1.8,24.8,7.2,24.8m39.9-85.92-.23,4.14c-5.07-2.43-11.19-3.62-18.67-3.62-16.16,0-32.64,6.71-46.39,18.89a87.67,87.67,0,0,0-26.5,42.17c-5,18.7-2.92,36,5.81,47.36,6.73,8.78,17.07,13.61,29.11,13.61l1.9,0c9.73-.31,19.4-4.82,29.25-13.7a23.55,23.55,0,0,0,4.41,6.32c5,5.09,12.27,7.78,21,7.78a60.88,60.88,0,0,0,21.7-4.62l8.41-3.31-3.35-8.4c-3.54-8.9,4.47-27.91,10.91-43.19,7.31-17.33,13.62-32.3,10.91-44-1-4.41-4.46-10.5-15.54-14.69a77,77,0,0,0-23.91-4.33l-8.83-.33Zm-39.24,76.61c-.59-1.91-1-6.44.81-13.07,3.21-11.49,13.89-24.44,23.4-24.62a15.83,15.83,0,0,1,3.76.4,11.78,11.78,0,0,1-.49,1.19c-11.68,22.25-23.09,34-27.48,36.1Z"/><path class="cls-3" d="M707.39,158.82c-16.53,0-28.34-9.81-30.07-25-1.07-11.4,2-23,5.22-35.25C686.39,84,690.36,69,687.75,53.05L686.91,48l5.16-.13,1.78,0c16.71,0,30.27,6,33.73,14.89,4.16,11,.23,22.89-3.93,35.53a157.93,157.93,0,0,0-5.58,19.86c24.52-27.2,37.9-60.46,37-69l-.28-1.95,1.37-1.62a4.75,4.75,0,0,1,3.67-1.61c3.93,0,21.18,6.48,28.12,15.63,3.92,5.17,3.76,9.82,2.92,12.8l0,.12,0,.12c-14.61,43.19-39.72,66.65-58.2,78.72A47.66,47.66,0,0,1,707.39,158.82Z"/><path class="cls-2" d="M759.88,48.4c3.14,0,30.28,10,26.71,22.72-13.6,40.2-36.8,63.6-56.4,76.4a43.47,43.47,0,0,1-22.8,6.8c-13,0-24-7-25.6-21-2.2-23.6,15.4-50.6,10.4-81l1.66,0c14.66,0,26.84,5.08,29.54,12,6.6,17.4-11.2,39.8-11,66,30.8-29,48.4-70.8,47.2-81.8,0-.08.09-.12.29-.12m0-9a9.17,9.17,0,0,0-7.07,3.17,9.08,9.08,0,0,0-2.17,6.93c.21,2.36-2.2,13-10.73,29.21a187.25,187.25,0,0,1-11.2,18.53c4.09-12.54,7.52-24.44,3.09-36.11v-.07c-4.2-10.79-19.09-17.76-37.93-17.76l-1.89,0-10.33.26,1.68,10.19c2.46,15-1.39,29.54-5.12,43.66-3.34,12.65-6.49,24.61-5.36,36.72v.18c1,9.11,5.19,16.67,12,21.88,6.07,4.65,13.86,7.1,22.54,7.1a52.22,52.22,0,0,0,27.63-8.2l.05,0,0,0c19.08-12.46,45-36.64,60-81l.08-.23.06-.23c1.11-4,1.38-10.09-3.67-16.74-8-10.47-26.37-17.41-31.7-17.41Z"/><path class="cls-3" d="M803.47,159.12c-16.82,0-29.85-5.39-37.69-15.6-7.71-10-9.68-24.09-5.54-39.56a78.56,78.56,0,0,1,26.35-40.25A76.79,76.79,0,0,1,835.5,46.22l2.08,0c14.2,0,25.81,5.5,31.86,15.11,5.26,8.38,5.48,19,.6,29.17-9,18.87-37.42,30.68-61.75,32.24,2.77,2.07,6.75,3.11,11.9,3.11,11.23-.16,20.4-3.77,29.67-11.71l2.16-1.86,2.6,1.16c4,1.78,5.69,6,4.58,11.17-2.56,12-22.57,34.38-51.7,34.44C806.14,159.09,804.78,159.12,803.47,159.12ZM829,75.62c-7.83.14-14.94,8.74-19.94,18.55,10.22-2,24.41-6.39,24.41-15C833.49,77.33,833.49,75.63,829,75.62Z"/><path class="cls-2" d="M837.58,50.69c24.54,0,37.95,18,28.41,37.83-9,18.8-40.27,29.86-63.11,29.86-1,0-1.94,0-2.89-.06,2.4,7.6,9.2,12,20.2,12,14.2-.2,24.2-5.6,32.6-12.8,9.4,4.2-11.6,37-45.4,37-1.34.07-2.65.1-3.92.1-33.12,0-46.2-22.15-38.88-49.5,7.6-28.6,35-54.4,71-54.4l2,0m-36,49.23c13-1.6,36.4-6.4,36.4-20.8,0-5.6-3.4-8-9-8-13.6.2-23.2,18-27.4,28.8m36-58.23-2.17,0a81.22,81.22,0,0,0-51.66,18.5,83.15,83.15,0,0,0-27.86,42.59c-4.51,16.83-2.26,32.27,6.32,43.45,6.08,7.92,18.17,17.36,41.26,17.36,1.35,0,2.75,0,4.14-.1,29.7-.11,52.61-22.18,56-38,1.62-7.58-1.41-12.62-5.29-15.19,6.32-4.53,12.2-10.41,15.79-17.9,5.56-11.59,5.25-23.8-.86-33.51C866.36,48,853.36,41.69,837.58,41.69Zm-18.5,45.15c3.12-3.86,6.5-6.5,9.72-6.7-.78,2.19-4.06,4.61-9.72,6.7Z"/><path class="cls-3" d="M929.58,159.82c-7.43,0-13.56-2.24-17.72-6.47-3.89-3.95-5.88-9.52-5.77-16.1.13-11,4.82-21.5,10.26-33.64,2.58-5.77,5.23-11.69,7.62-18.16-7.88,5.08-22.14,17.72-29.89,34.74-5.19,11.54-6.66,22.48-3.92,29.24l1.7,4.22-4.23,1.66a55.44,55.44,0,0,1-20,4.31c-7.46,0-13.6-2.24-17.78-6.49-3.85-3.92-5.83-9.41-5.72-15.88.1-10.93,6.76-26.51,13.81-43,7-16.3,14.17-33.16,14-43.65l-.09-4.76,4.75.18c15.45.56,32.86,4.91,35.41,15.43a20.91,20.91,0,0,1,.51,5.51C924.88,57.75,944,46,958.58,46c8.88,0,15.49,3.92,17.67,10.48,3.44,10.66-3.57,26.67-11.7,45.21-7.72,17.62-16.47,37.58-12.39,47.74l1.64,4.09-4.06,1.73A52.79,52.79,0,0,1,929.58,159.82Z"/><path class="cls-2" d="M958.58,50.52c6.8,0,11.8,2.6,13.4,7.4,6.2,19.2-33,70.8-24,93.2a48.43,48.43,0,0,1-18.4,4.2c-11.2,0-19.2-5.8-19-18,.2-16.4,12-32.8,19.6-56,.6-2,0-2.8-1.2-2.8-6.2,0-28.8,17.4-39,39.8-5.4,12-7.4,24.4-4,32.8a51,51,0,0,1-18.39,4c-11.21,0-19.21-5.8-19-17.8.2-20.8,28.19-64.6,27.79-86.8,16.4.6,29.6,5.4,31.2,12,1,4.2,0,9.6-1.8,15.6,11.2-10,36.6-27.6,52.8-27.6m-91.36-9.34.17,9.51c.17,9.53-7.16,26.67-13.63,41.8-7.22,16.9-14,32.86-14.17,44.72-.13,7.69,2.3,14.29,7,19.08,5,5.12,12.3,7.83,21,7.83a59.81,59.81,0,0,0,21.69-4.62l8.46-3.33-3.41-8.42c-2.26-5.57-.78-15.43,3.86-25.73a79.69,79.69,0,0,1,14.3-20.81c-.08.19-.17.38-.25.56-5.4,12.08-10.51,23.48-10.66,35.44-.16,9.84,3.76,15.93,7.07,19.29,5,5.12,12.27,7.82,20.93,7.82a57.37,57.37,0,0,0,21.92-4.91l8.13-3.45-3.3-8.19c-.91-2.29-1.39-7.08,1.56-17,2.5-8.39,6.71-18,10.78-27.28,8.5-19.38,15.83-36.12,11.88-48.36v0l0,0c-2.83-8.49-11-13.56-21.94-13.56-13.36,0-30,8.93-42.65,17.51-5.15-15.07-31.17-17.21-39.22-17.5l-9.49-.35Z"/><path class="cls-1" d="M147,57.52c-4.2,21.2-26.2,43.4-55.2,53.6,4.8,12.4,16.6,26.8,31,30.4-1.2,10.8-18,18-31.2,18-5.2,0-9.8-1.2-12.8-3.6-10.4-9-13.8-26.4-16-38.8-3.4.2-7,.2-10.6.2-5,14-7.8,26.8-4.8,34.4a52,52,0,0,1-18.6,4c-11.6,0-20-5.8-19.8-17.8.2-17,28.4-63.8,43.8-126.8,9-1.59,24.8,1.21,28.4,11.21,6.6-6.21,15.2-11,25.8-11C134.8,11.33,151.4,34.32,147,57.52ZM61.8,92.92c24.6-4.8,44.2-21.4,48.2-35.4,3.2-11.6-4-20-15-20-10.8,0-17,8-20.4,18.6C70.8,68.32,66.6,81.12,61.8,92.92Z"/><path class="cls-1" d="M189.2,23.33c1.6,7-3,20.39-9.2,36.59a54.11,54.11,0,0,1,30.4-9.2c24.4-1,34.4,22,26.8,50.2s-39,53.6-75.2,53.6h-4.2c-23.6-.6-34-15-33.2-38,.2-20.8,33.6-84.19,33-106.4C174,10.72,187.8,16.72,189.2,23.33Zm9,83c6.6-14,11.2-35.2,0-35.2-11.4.2-30.4,21.4-35.6,41-1.4,6.8-4.2,22,6.2,22C180.8,133.92,193.4,116.92,198.2,106.32Z"/><path class="cls-1" d="M294.8,23.33c.6,39.79-43.4,105.19-34.4,127.79a51,51,0,0,1-18.4,4c-11.2,0-19.2-5.8-19-17.8.2-20.8,38.2-82.8,39.6-127C279,10.92,294.8,16.72,294.8,23.33Z"/><path class="cls-1" d="M369.2,149.12c-3.4,4.8-9.4,7.4-16.2,7.4-13.6,0-24.2-10.2-31.2-20.8-9.8,9-22.4,17.4-36.2,17.4-11.2,0-24.2-4-29.6-10.4,20.6-12.2,36-27.2,48.4-41.6-7.2-16-15-33.2-25.8-48.2,2.2-2,5.6-3,9.4-3,7.8,0,17.8,3.8,22.8,10a161.49,161.49,0,0,1,12.6,18.2c9.6-11.6,17.8-20.8,26.8-24.2a20.92,20.92,0,0,1,7.2-1.2c11.8,0,25,8.8,27.6,15-19.2,13-31.2,29.2-42.8,44.2C350.2,126.12,358.8,139.52,369.2,149.12Z"/><path class="cls-3" d="M475.19,9.33c16.4.59,32.2,6.39,32.2,13C508,62.12,462,128.52,471,151.12a51,51,0,0,1-18.4,4c-11.2,0-19.2-5.8-19-17.8,0-7.6,5.4-21.2,12.2-37.4-17-.4-28.4.2-37.6.8-8.8,21.6-15.39,40.4-11.39,50.4a51.06,51.06,0,0,1-18.41,4c-11.19,0-19.19-5.8-19-17.8,0-8.2,6.19-23.2,13.8-41-12.4-7-8.2-20.4-3.61-27a65.46,65.46,0,0,0,12.8,4.6c9.41-22.8,18-44.4,18.6-64.59,16.4.59,32.2,6.39,32.2,13,.2,16.79-7.8,35.79-16.4,57.39a342.86,342.86,0,0,0,37,1.4C464,56.32,474.39,31.52,475.19,9.33Z"/><path class="cls-3" d="M569.39,117.52c9.4,4.2-11.6,37-45.4,37-36,1.8-50.4-21-42.8-49.4,7.6-28.6,35-54.4,71-54.4,25.8-1,40.2,17.4,30.4,37.8-9.4,19.6-43,30.8-66,29.8,2.4,7.6,9.2,12,20.2,12C551,130.12,561,124.72,569.39,117.52Zm-51.2-17.6c13-1.6,36.4-6.4,36.4-20.8,0-5.6-3.4-8-9-8C532,71.32,522.39,89.12,518.19,99.92Z"/><path class="cls-3" d="M635.79,127.92c-11.4,15-24.2,26.4-37.4,26.8-24.6,1-35.4-21.4-27.8-49.6s34.4-54.4,64.2-54.4c12,0,20.4,3.4,24.6,13.4a60.88,60.88,0,0,0,2.8-13.6c16.2.6,29.6,5.4,31,12,4.6,19.6-30.4,66-21.4,88.6a51.89,51.89,0,0,1-18.4,4c-11.2,0-19.2-5.6-19-17.8A44.6,44.6,0,0,1,635.79,127.92Zm-29.2-25.6c-3.4,12.2-1.8,24.8,7.2,24.8,9.6,0,25.2-20.4,36.2-41.4,4.4-9.2-.2-14.6-11.4-14.6C623.39,71.32,610.39,88.72,606.59,102.32Z"/><path class="cls-3" d="M712.39,130.32c30.8-29,48.4-70.8,47.2-81.8-.2-1.4,30.8,9,27,22.6-13.6,40.2-36.8,63.6-56.4,76.4a43.47,43.47,0,0,1-22.8,6.8c-13,0-24-7-25.6-21-2.2-23.6,15.4-50.6,10.4-81,15.4-.4,28.4,4.8,31.2,12C730,81.72,712.19,104.12,712.39,130.32Z"/><path class="cls-3" d="M852.79,117.52c9.4,4.2-11.6,37-45.4,37-36,1.8-50.4-21-42.8-49.4,7.6-28.6,35-54.4,71-54.4,25.8-1,40.2,17.4,30.4,37.8-9.4,19.6-43,30.8-66,29.8,2.4,7.6,9.2,12,20.2,12C834.39,130.12,844.39,124.72,852.79,117.52Zm-51.2-17.6c13-1.6,36.4-6.4,36.4-20.8,0-5.6-3.4-8-9-8C815.39,71.32,805.79,89.12,801.59,99.92Z"/><path class="cls-3" d="M929,78.52c-6.2,0-28.8,17.4-39,39.8-5.4,12-7.4,24.4-4,32.8a51,51,0,0,1-18.39,4c-11.21,0-19.21-5.8-19-17.8.2-20.8,28.19-64.6,27.79-86.8,16.4.6,29.6,5.4,31.2,12,1,4.2,0,9.6-1.8,15.6,11.2-10,36.6-27.6,52.8-27.6,6.8,0,11.8,2.6,13.4,7.4,6.2,19.2-33,70.8-24,93.2a48.43,48.43,0,0,1-18.4,4.2c-11.2,0-19.2-5.8-19-18,.2-16.4,12-32.8,19.6-56C930.78,79.32,930.18,78.52,929,78.52Z"/></g></g></svg>