<svg xmlns="http://www.w3.org/2000/svg" xmlns:xlink="http://www.w3.org/1999/xlink" viewBox="0 0 1519.45 447.77"><defs><style>.cls-1{fill:none;}.cls-2{fill:#2c2a2b;}.cls-3{fill:url(#linear-gradient);}.cls-4{fill:url(#linear-gradient-2);}.cls-5{fill:url(#linear-gradient-3);}.cls-6{fill:url(#linear-gradient-4);}.cls-7{fill:url(#linear-gradient-5);}.cls-8{fill:url(#linear-gradient-6);}.cls-9{fill:url(#linear-gradient-7);}.cls-10{fill:url(#linear-gradient-8);}.cls-11{fill:url(#linear-gradient-9);}.cls-12{fill:url(#linear-gradient-10);}.cls-13{fill:url(#linear-gradient-11);}.cls-14{fill:url(#linear-gradient-12);}.cls-15{fill:url(#linear-gradient-13);}.cls-16{fill:url(#linear-gradient-14);}.cls-17{fill:#ffdd15;}.cls-18{fill:#edfcff;}.cls-19{fill:#ffbe04;}.cls-20{fill:#ff850d;}.cls-21{clip-path:url(#clip-path);}.cls-22{fill:#ffab00;}.cls-23{fill:#ffd004;}.cls-24{fill:#ffea6c;}.cls-25{fill:#fffcfc;}.cls-26{fill:#ff9b04;}.cls-27{fill:#c76303;}.cls-28{fill:#fbd709;}.cls-29{fill:#9c510e;}.cls-30{fill:#674518;}.cls-31{fill:#412609;}.cls-32{fill:#2e1801;}.cls-33{fill:#e57102;}.cls-34{fill:#66c600;}.cls-35{fill:#7dd302;}.cls-36{fill:#753d00;}.cls-37{fill:#824100;}</style><linearGradient id="linear-gradient" x1="406.24" y1="428.99" x2="406.24" y2="169.64" gradientUnits="userSpaceOnUse"><stop offset="0" stop-color="#e6e6e6"/><stop offset="1" stop-color="#f2f2f2"/></linearGradient><linearGradient id="linear-gradient-2" x1="604.42" y1="420.95" x2="604.42" y2="168.33" xlink:href="#linear-gradient"/><linearGradient id="linear-gradient-3" x1="784.62" y1="424.17" x2="784.62" y2="232.72" xlink:href="#linear-gradient"/><linearGradient id="linear-gradient-4" x1="972.17" y1="168.67" x2="972.17" y2="422.24" gradientUnits="userSpaceOnUse"><stop offset="0" stop-color="#ffea6c"/><stop offset="1" stop-color="#ffab00"/></linearGradient><linearGradient id="linear-gradient-5" x1="1127.34" y1="160.35" x2="1127.34" y2="421.92" xlink:href="#linear-gradient-4"/><linearGradient id="linear-gradient-6" x1="1256.89" y1="230.27" x2="1256.89" y2="420.63" xlink:href="#linear-gradient-4"/><linearGradient id="linear-gradient-7" x1="1413.84" y1="233.95" x2="1413.84" y2="421.11" xlink:href="#linear-gradient-4"/><linearGradient id="linear-gradient-8" x1="406.24" y1="418.99" x2="406.24" y2="179.64" xlink:href="#linear-gradient"/><linearGradient id="linear-gradient-9" x1="604.42" y1="410.95" x2="604.42" y2="178.71" xlink:href="#linear-gradient"/><linearGradient id="linear-gradient-10" x1="786.06" y1="414.17" x2="786.06" y2="242.72" xlink:href="#linear-gradient"/><linearGradient id="linear-gradient-11" x1="972.17" y1="179.03" x2="972.17" y2="412.24" xlink:href="#linear-gradient-4"/><linearGradient id="linear-gradient-12" x1="1127.34" y1="170.35" x2="1127.34" y2="411.92" xlink:href="#linear-gradient-4"/><linearGradient id="linear-gradient-13" x1="1256.89" y1="240.27" x2="1256.89" y2="410.63" xlink:href="#linear-gradient-4"/><linearGradient id="linear-gradient-14" x1="1413.85" y1="243.95" x2="1413.85" y2="411.11" xlink:href="#linear-gradient-4"/><clipPath id="clip-path"><path class="cls-1" d="M271,175.68s-10.72-36.12-52.56-35-56.13,30.74-60.78,44c0,0-39,12.52-41.12,50.06,0,0-29,15-13.23,55.42,0,0-13.59,16.81,6.79,40.05,0,0-3.93,28.6,26.46,40.4,0,0,5.37,29,43.62,41.48,0,0,8.58,29.67,52.92,27.17s55.78-23.24,56.14-39.33c0,0,40.76-13.94,32.53-40.76,0,0,33.61-12.87,18.24-49.7,0,0,15-15-4.29-37.54,0,0,7.51-31.11-18.59-41.84C317.1,230,318.17,196.06,271,175.68Z"/></clipPath></defs><g id="Layer_2" data-name="Layer 2"><g id="Layer_5" data-name="Layer 5"><polygon class="cls-2" points="429.22 220.84 371.54 251.89 356.01 326.21 433.66 399.42 514.5 378.14 584.51 392.76 707.63 389.44 855.16 386.11 929.48 347.29 988.7 347.15 1055.93 386.11 948.33 288.5 879.56 271.86 774.19 267.42 429.22 220.84"/><path class="cls-3" d="M427.55,429c-11,0-20.31-2.76-26.84-8l-.15-.12-.14-.12c-16.36-14.15-23.09-37.44-27.46-59.69l-1.64,0c-8.2,24.94-7.64,36.41-5.56,41.68l3.67,9.31-9.31,3.66c-11.84,4.67-23.45,7.13-33.58,7.13-13.36,0-24.38-4-31.86-11.63-6.71-6.82-10.16-16.21-10-27.16.16-14,8.86-34.83,22-66.35,14.82-35.5,35.11-84.12,48.72-139.8l1.55-6.33,6.41-1.14a57.93,57.93,0,0,1,10.06-.83c13.24,0,29.57,3.85,39.56,14,12.06-8.61,25.24-13,39.3-13,23.94,0,44.91,9.41,59.06,26.49a72.11,72.11,0,0,1,15.1,59.68c-3.76,19-14.91,38-32.25,55a169.89,169.89,0,0,1-52.75,34.79c8.33,15,22.73,29.75,38.68,33.73l8.48,2.12-1,8.69C484.92,415.84,451,429,427.55,429ZM433,232.78c-3.93,0-15.92,0-23.28,23-3.94,12.64-8.48,26.83-13.65,41.09,27.2-10.26,47.1-29.44,51.44-44.64,1.57-5.67,1-10.56-1.67-14.06S438.66,232.78,433,232.78Z"/><path class="cls-2" d="M373.45,179.64c14.34,0,32.58,5.38,37.37,18.69,10.61-10,24.45-17.69,41.49-17.69,44.72,0,71.41,37,64.34,74.31-6.76,34.09-42.14,69.8-88.78,86.2,7.72,19.94,26.7,43.1,49.86,48.9-1.93,17.36-29,28.94-50.18,28.94-8.37,0-15.77-1.93-20.59-5.79-16.73-14.47-22.2-42.46-25.73-62.4-5.47.32-11.26.32-17.05.32-8,22.52-12.55,43.11-7.72,55.33-10.62,4.18-20.91,6.43-29.92,6.43-18.65,0-32.16-9.33-31.84-28.63.32-27.34,45.67-102.61,70.44-203.93a47.45,47.45,0,0,1,8.31-.68m6.17,132.24c39.56-7.72,71.09-34.42,77.52-56.93,5.15-18.66-6.43-32.17-24.13-32.17-17.37,0-27.34,12.86-32.81,29.91-6.11,19.63-12.86,40.21-20.58,59.19m-6.17-152.24a67.18,67.18,0,0,0-11.81,1l-12.83,2.28-3.1,12.66c-13.42,54.91-33.54,103.12-48.23,138.31C283.9,346.43,274.92,368,274.7,384c-.22,13.68,4.22,25.54,12.85,34.32,9.4,9.56,22.89,14.61,39,14.61,11.54,0,24.07-2.63,37.25-7.82l18.62-7.34-2.22-5.63a70.46,70.46,0,0,0,13.68,16.24l.29.25.3.24c8.32,6.66,19.76,10.17,33.09,10.17a92.39,92.39,0,0,0,41.62-10.25C485.86,420,496,407,497.6,392.25l1.93-17.37-16.95-4.24c-9.89-2.47-19.34-10.49-26.42-19.8,41.86-20.9,73-55.95,80.11-92v-.08l0-.08a82.07,82.07,0,0,0-17.23-67.91c-16.09-19.42-39.79-30.12-66.76-30.12a76.1,76.1,0,0,0-38.53,10.61c-11.85-8.3-27.37-11.61-40.33-11.61Zm45.82,99.08c5.14-15.94,11.17-15.94,13.74-15.94s4.35.71,4.88,1.42.73,2.61,0,5.34c-1.6,5.49-7.49,14.53-19.25,23.55-1.64,1.26-3.34,2.47-5.08,3.64,2-6.22,3.94-12.27,5.72-18Z"/><path class="cls-4" d="M565.05,421c-20.09-.51-35.81-6.65-46.74-18.26-11.66-12.39-17.18-30.24-16.4-53.08.23-17.94,12.81-50.09,26.13-84.13,12.84-32.8,27.39-70,26.94-86.5l-.29-10.65,10.65.39c26.2,1,56.2,10.46,60.23,29.06,2.15,9.55-.45,22.57-6.7,41.18a97.5,97.5,0,0,1,30.83-5c.89,0,1.77,0,2.64,0,17.59,0,32.08,6.77,41.9,19.59,13.31,17.37,16.38,44.27,8.42,73.8-6.68,24.79-23.35,48.07-46.93,65.54C631.31,411,601.6,421,572.05,421ZM582,368a3.48,3.48,0,0,0,.94.1c13-.31,31-22.8,38.26-38.83l.06-.14a115.6,115.6,0,0,0,9-27.35c1.65-9.1.75-13.64.12-15h0c-11.92.36-39.75,29.1-47.6,58.24C579,363.43,581.47,367.45,582,368Z"/><path class="cls-2" d="M565,178.71c26.37,1,48.57,10.62,50.82,21.23,2.57,11.26-4.82,32.81-14.79,58.87A87,87,0,0,1,649.9,244c.82,0,1.64,0,2.44,0,37.47,0,52.63,36.38,40.66,80.79C680.78,370.1,630.28,411,572.06,411H565.3c-38-1-54.68-24.12-53.4-61.11.33-33.46,54-135.43,53.08-171.13m18,199.43c19.3-.32,39.57-27.66,47.29-44.71,10.61-22.52,18-56.61,0-56.61-18.34.32-48.9,34.42-57.26,65.94-2.25,10.94-6.75,35.38,10,35.38m-38.58-220.2.58,21.31c.09,3.31-.76,11.88-7.43,32.07-5.06,15.34-12.06,33.23-18.83,50.52-14.23,36.35-26.52,67.77-26.82,87.53-.85,25.55,5.58,45.8,19.12,60.18,12.83,13.62,30.91,20.82,53.76,21.4h7.27c31.67,0,63.5-10.66,89.63-30,25.38-18.81,43.36-44,50.62-71,8.78-32.56,5.08-62.62-10.13-82.48C690.56,232.31,672.86,224,652.34,224c-.94,0-1.89,0-2.84,0a111,111,0,0,0-16.1,1.21c3-12,3.76-21.43,1.93-29.6-5.22-23.91-38.69-35.76-69.62-36.9l-21.3-.78Zm48.08,189.43c3-11,10.13-23.86,19.07-34.48a88.35,88.35,0,0,1,7.86-8.27,108.67,108.67,0,0,1-7.23,20.28l-.07.14-.06.14a93.48,93.48,0,0,1-15.67,23.2,59.27,59.27,0,0,1-4.93,4.73q.38-2.49,1-5.74Z"/><path class="cls-5" d="M838.33,424.17c-22.88,0-40.13-14.12-51.88-28.79-19.23,15.48-38.2,23.32-56.52,23.32s-43.5-6.34-55.25-20.28l-7.62-9,10.17-6c25.63-15.18,48.38-34.35,71.18-60.05-10.35-22.93-22.16-48.14-37.85-69.93l-5.22-7.24,6.61-6c5.26-4.79,13-7.43,21.84-7.43,13.72,0,33.48,6.2,44.45,19.81a231,231,0,0,1,13.64,18.67c12.54-14.46,24.67-26.21,38.41-31.4l.12,0a43.78,43.78,0,0,1,15-2.53c23,0,47.74,16.26,53.61,30.25l3.17,7.56-6.79,4.59C868.07,298.14,850.12,321,833,343.28c10.46,18.13,23,37.61,38.22,51.64l6.46,6-5.08,7.17C865.29,418.29,852.82,424.17,838.33,424.17Z"/><path class="cls-2" d="M733.79,242.72c12.54,0,28.63,6.11,36.67,16.09a257.92,257.92,0,0,1,20.26,29.27c15.45-18.66,28.63-33.46,43.11-38.93a33.82,33.82,0,0,1,11.58-1.92c19,0,40.21,14.15,44.39,24.12-30.88,20.91-50.18,47-68.84,71.09,12.87,22.84,26.7,44.39,43.43,59.83-5.47,7.72-15.12,11.9-26.06,11.9-21.87,0-38.92-16.41-50.18-33.45-15.76,14.47-36,28-58.22,28-18,0-38.92-6.43-47.61-16.73,33.14-19.62,57.9-43.74,77.85-66.9-11.58-25.73-24.13-53.4-41.5-77.52,3.54-3.22,9-4.83,15.12-4.83m0-20c-11.31,0-21.46,3.56-28.57,10l-13.21,12,10.43,14.48c13.81,19.18,24.65,41.42,34.16,62.26C716,344,695.23,361.08,672.13,374.77l-20.33,12L667,404.87c13.88,16.46,41.59,23.83,62.89,23.83,18.15,0,36.63-6.62,55.13-19.73a95.74,95.74,0,0,0,12.29,10.93c12.76,9.47,26.55,14.27,41,14.27,17.78,0,33.22-7.41,42.38-20.34l10.15-14.34L878,387.57c-12.64-11.67-23.83-28.23-33-43.52,15.48-19.91,32.13-40,56-56.14l13.57-9.18-6.34-15.11c-5.19-12.39-17.9-21.2-25-25.35-12.21-7.12-25.65-11-37.82-11A53.74,53.74,0,0,0,827,230.36l-.11,0-.12,0c-12.41,4.68-23.24,13.57-33.86,24.72q-3.45-4.72-6.91-9c-5.88-7.28-14.33-13.37-24.42-17.62a73.6,73.6,0,0,0-27.78-5.87Z"/><path class="cls-6" d="M1007.64,422.24c-12.71,0-23.25-3.89-30.48-11.24-6.78-6.89-10.26-16.53-10.08-27.87.24-19.27,7.6-37.7,16.12-59.05,1.69-4.24,3.41-8.53,5.12-12.95-15.45,13.77-36.57,37.29-46.13,61.18-3.77,13.8-4.5,23.69-2.17,29.4l3.82,9.37-9.41,3.71c-12,4.73-23.2,7.13-33.26,7.13-12.75,0-23.31-3.9-30.56-11.27-6.73-6.84-10.19-16.36-10-27.53.15-15.72,10.63-40.77,23.91-72.49,17.16-41,38.52-92.07,39.78-131.91l.32-10.05,10,.37c14.41.53,61.43,4.31,61.43,30.9,0,18.28-4.84,38.76-12.86,62.34,20.88-14.62,47-28.59,67.83-28.59,15.53,0,27.13,7,31,18.74,5.82,18-4.91,44.15-17.33,74.4-11.46,27.9-24.45,59.53-18.26,74.93l3.66,9.1-9,3.83C1029.5,419.63,1017.91,422.24,1007.64,422.24Z"/><path class="cls-2" d="M934.3,179c26.37,1,51.79,8,51.79,20.91,0,26.7-11.91,60.15-25.09,93.28,18.33-18,62.08-49.53,90.06-49.53,10.94,0,19,4.18,21.55,11.9,10,30.88-49.85,113.87-35.38,149.89-10.61,4.51-20.91,6.76-29.59,6.76-18,0-30.88-9.33-30.56-28.95.32-26.38,16.08-52.75,28.31-90.07,1-2.89.32-4.18-1.29-4.18-10,0-56,40.85-71.41,80.1-4.18,15.11-5.47,27.66-1.93,36.34-10.62,4.19-20.59,6.44-29.59,6.44-18,0-30.88-9.33-30.56-28.63.32-33.45,61.44-133.17,63.69-204.26m-19.36-20.72-.63,20.09c-1.21,38-22.17,88.11-39,128.37-14.21,34-24.48,58.51-24.68,76.25-.27,17.54,6.84,28.52,12.87,34.65,9.17,9.32,22.2,14.25,37.69,14.25,11.32,0,23.74-2.64,36.92-7.83l18.82-7.41-7.63-18.74c-.37-.91-2-6.2,2.4-22.43a109.13,109.13,0,0,1,8.71-16.61A104.16,104.16,0,0,0,957.08,383c-.27,17.76,6.89,28.84,12.95,35,9.15,9.3,22.16,14.22,37.61,14.22,11.6,0,24.54-2.89,37.4-8.34l18.06-7.67-7.31-18.2c-.78-1.95-2.14-8.21,2.23-24.09,3.63-13.2,9.92-28.51,16-43.31,13.17-32.07,24.54-59.77,17.63-81.19l0-.09,0-.09a35.34,35.34,0,0,0-17.06-20.09c-6.7-3.64-14.59-5.48-23.47-5.48-14.24,0-31.23,5.39-50.62,16.05,3.62-14.25,5.65-27.42,5.65-39.8,0-8.64-3.8-24.51-29.19-33.72-11.17-4.05-26-6.6-41.87-7.17l-20.09-.74Z"/><path class="cls-7" d="M1096.74,421.92c-12.74,0-23.31-3.9-30.56-11.27-6.73-6.84-10.18-16.36-10-27.53.18-18.11,11-43.4,22.44-70.18,11.09-25.95,22.57-52.79,22.27-69.07l-.19-10.56,10.56.38a149.32,149.32,0,0,1,16.78,1.56c-8.53-5.46-13.94-13.06-15.68-22.06-2-10.57,1.36-22.25,9.61-32.89,9.91-12.69,23.57-20,37.49-20a43.06,43.06,0,0,1,21.31,5.78c9.37,5.38,15.26,13.2,17.13,22.64,2.09,10.6-1.32,22.32-9.59,33-9.34,12.31-22.57,19.54-36.49,20,9.71,4.29,16.93,10.45,19,18.87l0,.17c3.91,17.4-6,40.77-17.45,67.84-11.32,26.75-24.16,57.06-17.76,73.14l3.72,9.33-9.34,3.68C1118,419.52,1106.8,421.92,1096.74,421.92Z"/><path class="cls-2" d="M1159.46,170.35a33.2,33.2,0,0,1,16.41,4.5c15.12,8.68,16.73,25.09,4.5,40.85-8,10.62-19,16.08-29.91,16.08a31.22,31.22,0,0,1-15.76-4.18c-15.44-9-17-25.41-4.83-41.17,8-10.29,19-16.08,29.59-16.08m-48.57,73.34c26.38,1,47.61,8.68,50.18,19.3,7.08,31.52-49.21,106.15-34.74,142.49-10.61,4.19-20.58,6.44-29.59,6.44-18,0-30.88-9.33-30.56-28.63.32-33.45,45.36-103.9,44.71-139.6m48.57-93.34c-17,0-33.55,8.66-45.35,23.77l0,0,0,0c-10,13-14.14,27.48-11.53,40.93a40.68,40.68,0,0,0,2.57,8.36l-14.59-.53.38,21.12c.25,14.14-11.29,41.14-21.48,65-11.83,27.69-23,53.84-23.24,74-.27,17.54,6.85,28.52,12.87,34.65,9.17,9.32,22.2,14.25,37.69,14.25,11.32,0,23.75-2.64,36.92-7.83l18.68-7.36-7.43-18.65c-1-2.6-2.16-9.18,2-24,3.54-12.76,9.73-27.38,15.72-41.52,12.13-28.65,22.61-53.4,18-73.93l0-.17,0-.17a31.13,31.13,0,0,0-6.06-12.16,62,62,0,0,0,21.79-18.24c10-13,14.12-27.57,11.47-41-2.41-12.2-10.18-22.61-21.88-29.33l-.08,0-.07,0a53.06,53.06,0,0,0-26.22-7.07Z"/><path class="cls-8" d="M1213.68,420.63c-28.09,0-48.15-16.74-51.11-42.64l0-.21c-1.74-18.68,3.23-37.54,8.5-57.5,6.11-23.15,12.43-47.09,8.32-72.08l-1.87-11.32,11.47-.3,2.93,0c28,0,50.85,10.33,56.83,25.71,7,18.54.57,38.2-6.28,59-2.25,6.84-4.53,13.79-6.41,20.85,35.37-42.71,52.73-90.39,51.66-100.53a10.08,10.08,0,0,1,2.41-7.76,10.37,10.37,0,0,1,8-3.55c6.86,0,35.55,10.59,47.41,26.23,7,9.23,6.68,17.61,5.17,23l-.07.26-.09.25c-23.75,70.22-64.62,108.39-94.71,128.05l-.1.06A79.44,79.44,0,0,1,1213.68,420.63Z"/><path class="cls-2" d="M1298.11,240.27c5,0,48.69,16,43,36.55-21.87,64.65-59.19,102.29-90.71,122.87a69.88,69.88,0,0,1-36.67,10.94c-20.91,0-38.6-11.26-41.17-33.77-3.54-38,24.77-81.39,16.72-130.28l2.67,0c23.59,0,43.17,8.17,47.51,19.33,10.62,28-18,64-17.69,106.15,49.54-46.64,77.84-113.87,75.91-131.56,0-.14.15-.2.48-.2m0-20a20.54,20.54,0,0,0-15.56,7,20.1,20.1,0,0,0-4.82,15.13c0,4-4.07,20-16.22,43.24a60.19,60.19,0,0,0-3.4-26.85l0-.08,0-.08c-7.58-19.49-33.54-32.08-66.15-32.08-1.05,0-2.13,0-3.19,0l-22.94.59,3.73,22.65c3.76,22.88-2.28,45.76-8.12,67.9-5.26,19.92-10.69,40.53-8.79,61l0,.21,0,.21c3.52,30.8,28,51.5,61,51.5a89.56,89.56,0,0,0,47.41-14.06l.1-.07.1-.06c31.41-20.52,74-60.28,98.71-133.21l.18-.51.14-.52c3-10.72.57-22-6.83-31.75-6.28-8.27-16.14-15.68-29.32-22-5.1-2.45-17.84-8.15-26.06-8.15Z"/><path class="cls-9" d="M1393.94,421.11c-35.3,0-53.63-14.23-62.8-26.16-12.94-16.86-16.27-40.31-9.39-66,6.75-25.4,22.13-48.9,43.31-66.17A126.15,126.15,0,0,1,1445.41,234c1.14,0,2.28-.06,3.4-.06,23.81,0,43.34,9.33,53.57,25.6,9,14.29,9.4,32.36,1.13,49.58-5.94,12.39-16.85,22.93-30.35,31.32l4.18,1.86c5.93,2.65,11.39,9.57,8.94,21.05-2.54,11.91-13,26.14-27.19,37.14A96,96,0,0,1,1400.5,421C1398.29,421.06,1396.08,421.11,1393.94,421.11Zm19.06-59.7a45.08,45.08,0,0,0,7.76.62c17-.25,31-5.61,45-17.32A162.45,162.45,0,0,1,1413,361.41Zm22.06-74.59c-10,.19-19.51,10.63-26.77,23.11,17.08-4,31.17-10.75,31.17-20.24a4.61,4.61,0,0,0-.33-2.2C1439,287.35,1437.73,286.83,1435.06,286.82Z"/><path class="cls-2" d="M1448.81,244c39.47,0,61,28.9,45.68,60.85-14.49,30.23-64.76,48-101.48,48-1.58,0-3.14,0-4.67-.1,3.86,12.22,14.8,19.3,32.49,19.3,22.84-.32,38.92-9,52.43-20.59,15.12,6.76-18.65,59.51-73,59.51q-3.23.17-6.31.16c-53.26,0-74.3-35.63-62.53-79.61,12.22-46,56.29-87.49,114.19-87.49q1.62-.06,3.21-.06m-57.89,79.19c20.91-2.57,58.54-10.3,58.54-33.46,0-9-5.47-12.86-14.47-12.86-21.88.32-37.32,28.95-44.07,46.32M1448.81,224c-1.18,0-2.39,0-3.59.06a136,136,0,0,0-86.48,31c-22.8,18.58-39.37,43.93-46.66,71.36-7.7,28.76-3.75,55.29,11.13,74.68,10.53,13.72,31.35,30.07,70.73,30.07,2.23,0,4.52-.05,6.81-.16a105.82,105.82,0,0,0,64.45-22.54c16.27-12.57,27.8-28.63,30.86-43,2.09-9.78,0-18.81-5.29-25.24,8.71-7.12,16.57-15.95,21.76-26.76,9.78-20.37,9.17-42-1.68-59.23-12.11-19.24-34.72-30.27-62-30.27Z"/><polygon class="cls-2" points="429.22 220.84 371.54 251.89 356.01 326.21 433.66 399.42 514.5 378.14 584.51 392.76 707.63 389.44 855.16 386.11 929.48 347.29 988.7 347.15 1055.93 386.11 948.33 288.5 879.56 271.86 774.19 267.42 429.22 220.84"/><path class="cls-10" d="M516.65,255c-6.76,34.09-42.14,69.8-88.78,86.2,7.72,19.94,26.7,43.1,49.86,48.9-1.93,17.36-29,28.94-50.18,28.94-8.37,0-15.77-1.93-20.59-5.79-16.73-14.47-22.2-42.46-25.73-62.4-5.47.32-11.26.32-17.05.32-8,22.52-12.55,43.11-7.72,55.33-10.62,4.18-20.91,6.43-29.92,6.43-18.65,0-32.16-9.33-31.84-28.63.32-27.34,45.67-102.61,70.44-203.93,14.48-2.57,39.89,1.93,45.68,18,10.61-10,24.45-17.69,41.49-17.69C497,180.64,523.72,217.63,516.65,255Zm-137,56.93c39.56-7.72,71.09-34.42,77.52-56.93,5.15-18.66-6.43-32.17-24.13-32.17-17.37,0-27.34,12.86-32.81,29.91C394.09,272.32,387.34,292.9,379.62,311.88Z"/><path class="cls-11" d="M615.8,199.94c2.57,11.26-4.82,32.81-14.79,58.87A87,87,0,0,1,649.9,244c39.24-1.61,55.33,35.38,43.1,80.74S630.28,411,572.06,411H565.3c-38-1-54.68-24.12-53.4-61.11.33-33.46,54-135.43,53.08-171.13C591.35,179.68,613.55,189.33,615.8,199.94Zm14.48,133.49c10.61-22.52,18-56.61,0-56.61-18.34.32-48.9,34.42-57.26,65.94-2.25,10.94-6.75,35.38,10,35.38C602.29,377.82,622.56,350.48,630.28,333.43Z"/><path class="cls-12" d="M864.39,402.27c-5.47,7.72-15.12,11.9-26.06,11.9-21.87,0-38.92-16.41-50.18-33.45-15.76,14.47-36,28-58.22,28-18,0-38.92-6.43-47.61-16.73,33.14-19.62,57.9-43.74,77.85-66.9-11.58-25.74-24.13-53.4-41.5-77.52,3.54-3.22,9-4.83,15.12-4.83,12.54,0,28.63,6.11,36.67,16.09a257.92,257.92,0,0,1,20.26,29.27c15.45-18.66,28.63-33.46,43.11-38.93a33.82,33.82,0,0,1,11.58-1.92c19,0,40.21,14.15,44.39,24.12-30.88,20.91-50.18,47-68.84,71.09C833.83,365.28,847.66,386.83,864.39,402.27Z"/><path class="cls-13" d="M1004.1,289c-10,0-56,40.85-71.41,80.1-4.18,15.11-5.47,27.66-1.93,36.34-10.62,4.19-20.59,6.44-29.59,6.44-18,0-30.88-9.33-30.56-28.63.32-33.45,61.44-133.17,63.69-204.26,26.37,1,51.79,8,51.79,20.91,0,26.7-11.91,60.15-25.09,93.28,18.33-18,62.08-49.53,90.06-49.53,10.94,0,19,4.18,21.55,11.9,10,30.88-49.85,113.87-35.38,149.89-10.61,4.51-20.91,6.76-29.59,6.76-18,0-30.88-9.33-30.56-28.95.32-26.38,16.08-52.75,28.31-90.07C1006.35,290.33,1005.71,289,1004.1,289Z"/><path class="cls-14" d="M1161.07,263c7.08,31.52-49.21,106.15-34.74,142.49-10.61,4.19-20.58,6.44-29.59,6.44-18,0-30.88-9.33-30.56-28.63.32-33.45,45.36-103.9,44.71-139.6C1137.27,244.65,1158.5,252.37,1161.07,263Zm19.3-47.29c-8,10.62-19,16.08-29.91,16.08a31.22,31.22,0,0,1-15.76-4.18c-15.44-9-17-25.41-4.83-41.17,8-10.29,19-16.08,29.59-16.08a33.2,33.2,0,0,1,16.41,4.5C1191,183.53,1192.6,199.94,1180.37,215.7Z"/><path class="cls-15" d="M1221.72,372c49.54-46.64,77.84-113.87,75.91-131.56-.32-2.25,49.54,14.48,43.43,36.35-21.87,64.65-59.19,102.29-90.71,122.87a69.88,69.88,0,0,1-36.67,10.94c-20.91,0-38.6-11.26-41.17-33.77-3.54-38,24.77-81.39,16.72-130.28,24.77-.64,45.68,7.72,50.18,19.3C1250,293.87,1221.4,329.89,1221.72,372Z"/><path class="cls-16" d="M1473.26,351.44c15.12,6.76-18.65,59.51-73,59.51-57.9,2.9-81.06-33.77-68.84-79.45,12.22-46,56.29-87.49,114.19-87.49,41.5-1.61,64.66,28,48.89,60.79-15.11,31.53-69.15,49.54-106.15,47.93,3.86,12.22,14.8,19.3,32.49,19.3C1443.67,371.71,1459.75,363,1473.26,351.44Zm-82.34-28.3c20.91-2.57,58.54-10.3,58.54-33.46,0-9-5.47-12.86-14.47-12.86C1413.11,277.14,1397.67,305.77,1390.92,323.14Z"/><path class="cls-17" d="M668.15,215.57a6.18,6.18,0,0,1,6.79-5.28,7.17,7.17,0,0,1,6.8,6s.37,5.66-3.78,7.17l-2.64,2.64s-1.51,4.15-7.93,4.91-9.06-3.78-9.06-3.78a8.56,8.56,0,0,1,4.16-10.57l2.26-1.13Z"/><path d="M666,231.57a9.49,9.49,0,0,1-8-4.07l0-.07c0-.07-2.7-7.2,4.35-11.11l2.38-1.19h3.13a6.58,6.58,0,0,1,7.19-5.29,7.68,7.68,0,0,1,7.21,6.43c0,.27.34,6-4,7.61l-2.51,2.51c-.29.67-2.11,4.38-8.26,5.1A12.07,12.07,0,0,1,666,231.57Zm-7.25-4.49c.25.4,2.76,4.21,8.6,3.53,6-.71,7.5-4.46,7.56-4.62l0-.09,2.78-2.79.09,0c3.79-1.38,3.49-6.67,3.48-6.72a6.66,6.66,0,0,0-6.38-5.63,5.69,5.69,0,0,0-6.32,4.9l-.05.39h-3.68l-2.18,1.08A8,8,0,0,0,658.74,227.08Z"/><path d="M658,223.5s5.62.25,5.26,7.11l1.93.62,3-.18s.94-10.31-9-11L658,222Z"/><path d="M662.49,217.08s9.12-.55,11.73,10.67l3.36-3.12s-2.26-9.06-10.56-10.57Z"/><path d="M681.23,214.05l-.5-.74a5.81,5.81,0,0,1,2.89-.82v.88A4.86,4.86,0,0,0,681.23,214.05Z"/><path d="M677.81,211.16l-.79-.4.4.2-.4-.2a5.59,5.59,0,0,0,.5-2.36h.88A6.34,6.34,0,0,1,677.81,211.16Z"/><path d="M655.49,231.07l.92-2.44c1.18-3.15,2.79-4,2.86-4l.39.8-.19-.4.2.39a4.66,4.66,0,0,0-1.43,1.53,4.3,4.3,0,0,1,2.36-.86V227c-1.66,0-3.42,2.09-3.44,2.11Z"/><path class="cls-18" d="M669.66,217.84a20.46,20.46,0,0,0-2.27-6,16.41,16.41,0,0,1-1.79-4.17,18.07,18.07,0,0,1-.57-2.82c-.21-1.73-.84-5.28-2.54-5.85-.89-.29-1.9.34-2.79,1.22a9.54,9.54,0,0,0-2.78,7.68,6.46,6.46,0,0,0,1,3.18c1.88,2.64,7.92,6.8,10.56,7.17S669.66,217.84,669.66,217.84Z"/><path d="M669.65,218.77a9.13,9.13,0,0,1-1.19-.12c-2.69-.38-8.88-4.57-10.86-7.35a7,7,0,0,1-1.13-3.4,10,10,0,0,1,2.91-8c1.21-1.19,2.3-1.64,3.25-1.33,1.8.6,2.54,3.71,2.84,6.21a17.81,17.81,0,0,0,.56,2.75,15.83,15.83,0,0,0,1.73,4.05,19.86,19.86,0,0,1,2.29,6c.39.24.55.51.46.8S670.14,218.77,669.65,218.77ZM662,199.33a3.43,3.43,0,0,0-2,1.17,9.12,9.12,0,0,0-2.65,7.32,6,6,0,0,0,1,3c1.85,2.59,7.8,6.64,10.27,7l.62.08A20.07,20.07,0,0,0,667,212a16.43,16.43,0,0,1-1.84-4.29,18.68,18.68,0,0,1-.59-2.89c-.37-3.08-1.21-5.13-2.24-5.48A1.25,1.25,0,0,0,662,199.33Z"/><path class="cls-18" d="M672.56,221.66a20.41,20.41,0,0,1,6.4.84,16.27,16.27,0,0,0,4.46.8,17.33,17.33,0,0,0,2.88-.08c1.73-.19,5.33-.37,6.27,1.16.49.8.09,1.92-.56,3a9.56,9.56,0,0,1-6.85,4.45,6.6,6.6,0,0,1-3.34-.3c-3-1.24-8.41-6.19-9.37-8.67S672.56,221.66,672.56,221.66Z"/><path d="M684,232.34a5.93,5.93,0,0,1-2.3-.41c-3.15-1.3-8.63-6.39-9.61-8.92-.48-1.22-.61-1.81-.17-2.07.26-.15.56-.06.89.27a20,20,0,0,1,6.35.87,15.73,15.73,0,0,0,4.34.78,17.83,17.83,0,0,0,2.8-.08c2.51-.27,5.7-.25,6.69,1.37.52.84.33,2-.55,3.46a10.11,10.11,0,0,1-7.17,4.65A11.39,11.39,0,0,1,684,232.34Zm-11.3-10.24c.05.16.12.35.21.59.91,2.32,6.19,7.21,9.13,8.42a6.13,6.13,0,0,0,3.11.27,9.18,9.18,0,0,0,6.53-4.24c.48-.78,1-1.86.56-2.53-.57-.92-2.75-1.28-5.85-1a17.29,17.29,0,0,1-2.94.08,16.74,16.74,0,0,1-4.6-.82A19.6,19.6,0,0,0,672.65,222.1Z"/><path d="M667.39,215.87c-.14-.25-3.42-6.08-3.8-7.6s-.75-3-1.13-4.14a1.08,1.08,0,0,0-1.14-.62,1.57,1.57,0,0,0-1.45,1.35c-.17.88-1,5.36,1,6.56a16.28,16.28,0,0,1,1.56,1c.46.33.59.44,1,.44,0,0,.07,0,.12-.12a3.26,3.26,0,0,0-.65-2.52l.31-.32a3.55,3.55,0,0,1,.75,3,.56.56,0,0,1-.53.39,1.81,1.81,0,0,1-1.24-.52,15.17,15.17,0,0,0-1.52-1c-2.19-1.31-1.5-5.71-1.23-7a2,2,0,0,1,1.85-1.7,1.5,1.5,0,0,1,1.6.92c.37,1.14.76,2.68,1.13,4.16s3.72,7.44,3.75,7.5Z"/><path d="M684.25,229.26a9.67,9.67,0,0,1-2.77-.45c-2.35-.73-3.69-1.56-4-2.47a1,1,0,0,1,.09-.9l0-.05.06,0a4,4,0,0,1,2.81.39l-.19.4a3.71,3.71,0,0,0-2.4-.39.69.69,0,0,0,0,.46c.15.43.83,1.28,3.69,2.16,3.85,1.18,5.63-.35,6.4-1,.21-.19.34-.3.48-.32a.51.51,0,0,0,0-.46c-.1-.3-.57-1-2.61-1-3.4,0-11.81-3.28-12.16-3.42l.16-.41c.09,0,8.68,3.38,12,3.38a4.43,4.43,0,0,1,2.43.55,1.37,1.37,0,0,1,.67,1.12c0,.38-.2.66-.46.66a1.88,1.88,0,0,1-.23.21A5.77,5.77,0,0,1,684.25,229.26Zm4.28-2.21Z"/><circle class="cls-17" cx="678.34" cy="207.27" r="1.32"/><path d="M678.34,208.81a1.55,1.55,0,1,1,1.54-1.54A1.54,1.54,0,0,1,678.34,208.81Zm0-2.64a1.1,1.1,0,0,0,0,2.2,1.1,1.1,0,1,0,0-2.2Z"/><circle class="cls-17" cx="684.76" cy="212.93" r="1.32"/><path d="M684.76,214.47a1.54,1.54,0,1,1,1.54-1.54A1.54,1.54,0,0,1,684.76,214.47Zm0-2.64a1.1,1.1,0,1,0,1.09,1.1A1.1,1.1,0,0,0,684.76,211.83Z"/><path class="cls-17" d="M469.45,422.4a6.16,6.16,0,0,0-6.76-5.26,7.14,7.14,0,0,0-6.76,6s-.38,5.64,3.76,7.14l2.62,2.63s1.51,4.13,7.89,4.88,9-3.76,9-3.76a8.52,8.52,0,0,0-4.14-10.51l-2.25-1.13Z"/><path d="M470.15,438.24c-6.11-.72-7.93-4.41-8.21-5.07l-2.5-2.5c-4.29-1.65-4-7.31-3.95-7.58a7.63,7.63,0,0,1,7.17-6.39,6.54,6.54,0,0,1,7.15,5.26h3.12l2.37,1.18c7,3.9,4.35,11,4.33,11.06l0,.07a9.45,9.45,0,0,1-8,4.05A12,12,0,0,1,470.15,438.24Zm4.74-14.32-2.16-1.08h-3.67l-.05-.38a5.68,5.68,0,0,0-6.29-4.88,6.65,6.65,0,0,0-6.35,5.6c0,.05-.31,5.32,3.47,6.69l.09,0,2.77,2.76,0,.09c.06.16,1.51,3.89,7.52,4.6,5.81.68,8.32-3.11,8.57-3.51A8,8,0,0,0,474.89,423.92Z"/><path d="M479.59,430.29s-5.59.25-5.24,7.07l-1.91.62-3-.18s-.93-10.26,8.92-10.95l1.22,1.94Z"/><path d="M475.08,423.9s-9.08-.55-11.67,10.62l-3.35-3.11s2.25-9,10.52-10.51Z"/><path d="M456.44,420.89l.49-.73a5.56,5.56,0,0,0-2.88-.83v.88A4.79,4.79,0,0,1,456.44,420.89Z"/><path d="M459.83,418l.79-.4-.39.2.39-.2a5.59,5.59,0,0,1-.49-2.34h-.89A6.42,6.42,0,0,0,459.83,418Z"/><path d="M482,437.82l-.91-2.43c-1.17-3.13-2.78-4-2.84-4l-.4.79.2-.4-.2.39a4.73,4.73,0,0,1,1.42,1.52,4.37,4.37,0,0,0-2.35-.85v.88c1.65,0,3.4,2.08,3.42,2.1Z"/><path class="cls-18" d="M468,424.65a20.3,20.3,0,0,1,2.25-6A16,16,0,0,0,472,414.5a17.94,17.94,0,0,0,.57-2.81c.21-1.72.84-5.25,2.53-5.81.89-.3,1.89.33,2.78,1.21a9.48,9.48,0,0,1,2.76,7.64,6.37,6.37,0,0,1-1,3.16c-1.88,2.63-7.89,6.76-10.52,7.14S468,424.65,468,424.65Z"/><path d="M467.1,425.16c-.09-.29.07-.55.46-.79a20,20,0,0,1,2.27-6,15.71,15.71,0,0,0,1.73-4,16.68,16.68,0,0,0,.55-2.73c.3-2.49,1-5.59,2.83-6.18.94-.31,2,.13,3.23,1.32a10,10,0,0,1,2.89,8,6.83,6.83,0,0,1-1.11,3.38c-2,2.76-8.14,6.94-10.81,7.32a8.86,8.86,0,0,1-1.18.11C467.46,425.58,467.2,425.46,467.1,425.16Zm8.12-18.86c-1,.34-1.86,2.37-2.23,5.44a18.33,18.33,0,0,1-.58,2.88,16.81,16.81,0,0,1-1.84,4.27,19.56,19.56,0,0,0-2.17,5.78l.61-.08c2.46-.35,8.38-4.38,10.22-6.95a6,6,0,0,0,1-3,9.14,9.14,0,0,0-2.64-7.28,3.42,3.42,0,0,0-2-1.15A.89.89,0,0,0,475.22,406.3Z"/><path class="cls-18" d="M465.06,428.46a20.34,20.34,0,0,0-6.36.83,16.2,16.2,0,0,1-4.45.8,17.09,17.09,0,0,1-2.86-.08c-1.73-.18-5.3-.36-6.24,1.16-.48.79-.09,1.91.56,3a9.47,9.47,0,0,0,6.81,4.41,6.51,6.51,0,0,0,3.32-.29c3-1.23,8.37-6.15,9.33-8.63S465.06,428.46,465.06,428.46Z"/><path d="M452.47,439a10,10,0,0,1-7.14-4.62c-.88-1.45-1.07-2.6-.55-3.44,1-1.61,4.16-1.64,6.66-1.37a16.55,16.55,0,0,0,2.79.08,15.57,15.57,0,0,0,4.31-.77,19.87,19.87,0,0,1,6.33-.87c.32-.33.61-.42.87-.26.45.26.31.84-.16,2.05-1,2.52-6.43,7.58-9.57,8.88a6,6,0,0,1-2.28.41A9.34,9.34,0,0,1,452.47,439Zm6.38-9.29a16.54,16.54,0,0,1-4.57.82,17.31,17.31,0,0,1-2.94-.08c-3.07-.33-5.24,0-5.81.95-.41.66.08,1.73.56,2.51a9.11,9.11,0,0,0,6.49,4.22,6.09,6.09,0,0,0,3.1-.27c2.92-1.21,8.18-6.06,9.08-8.38.09-.24.16-.43.21-.58A19.32,19.32,0,0,0,458.85,429.71Z"/><path d="M470.21,422.7c.13-.25,3.4-6.06,3.77-7.57s.75-3,1.13-4.11a1.05,1.05,0,0,1,1.13-.62,1.55,1.55,0,0,1,1.44,1.34c.18.88,1,5.34-1,6.53a18.42,18.42,0,0,0-1.55,1c-.45.34-.59.44-1,.44,0,0-.08,0-.13-.12a3.23,3.23,0,0,1,.66-2.51l-.32-.31a3.56,3.56,0,0,0-.75,3,.57.57,0,0,0,.54.39,1.77,1.77,0,0,0,1.22-.52c.33-.24.77-.56,1.52-1,2.18-1.31,1.49-5.69,1.23-7a2,2,0,0,0-1.85-1.69,1.47,1.47,0,0,0-1.58.92c-.38,1.13-.76,2.66-1.13,4.14s-3.7,7.4-3.74,7.46Z"/><path d="M449.4,434.47a1.88,1.88,0,0,1-.23-.21c-.26,0-.46-.28-.46-.66a1.36,1.36,0,0,1,.67-1.11,4.37,4.37,0,0,1,2.42-.55c3.3,0,11.85-3.33,11.94-3.36l.16.41c-.36.14-8.72,3.4-12.1,3.4-2,0-2.5.68-2.6,1a.53.53,0,0,0,0,.47c.14,0,.26.12.48.31.76.65,2.54,2.18,6.36,1,2.85-.88,3.52-1.73,3.67-2.15a.65.65,0,0,0,0-.46,3.68,3.68,0,0,0-2.39.39l-.19-.4a3.93,3.93,0,0,1,2.79-.39l.07,0,0,.05a1.05,1.05,0,0,1,.1.9c-.3.91-1.63,1.73-4,2.45a9.55,9.55,0,0,1-2.76.45A5.71,5.71,0,0,1,449.4,434.47Zm-.23-.65Z"/><circle class="cls-17" cx="459.31" cy="414.14" r="1.31"/><path d="M457.77,414.14a1.54,1.54,0,1,1,1.54,1.53A1.54,1.54,0,0,1,457.77,414.14Zm.45,0a1.09,1.09,0,1,0,1.09-1.09A1.09,1.09,0,0,0,458.22,414.14Z"/><circle class="cls-17" cx="452.93" cy="419.77" r="1.31"/><path d="M451.39,419.77a1.54,1.54,0,1,1,1.54,1.54A1.54,1.54,0,0,1,451.39,419.77Zm.44,0a1.1,1.1,0,1,0,1.1-1.09A1.1,1.1,0,0,0,451.83,419.77Z"/><path class="cls-17" d="M349,203.68a6,6,0,0,0,3.5-7.57,6.94,6.94,0,0,0-7.19-5.09s-5.42.89-5.94,5.14l-1.91,3.07s-3.58,2.34-2.89,8.55,5.55,7.72,5.55,7.72a8.29,8.29,0,0,0,9.06-6.23l.57-2.39Z"/><path d="M334.1,207.83c-.66-6,2.43-8.49,3-8.9l1.82-2.92c.61-4.43,6.05-5.37,6.31-5.41a7.41,7.41,0,0,1,7.64,5.38,6.35,6.35,0,0,1-3.41,7.94l.69,3-.6,2.5c-2.15,7.51-9.46,6.56-9.53,6.55l-.07,0a9.14,9.14,0,0,1-5.61-6.69A13.84,13.84,0,0,1,334.1,207.83Zm14.62,1.34.55-2.29-.81-3.47.35-.14a5.51,5.51,0,0,0,3.24-7,6.46,6.46,0,0,0-6.71-4.78s-5.11.88-5.58,4.76v.09l-2,3.24-.08.05c-.14.09-3.36,2.29-2.7,8.15.63,5.65,4.78,7.19,5.21,7.34A7.79,7.79,0,0,0,348.72,209.17Z"/><path d="M343.72,215s-1.47-5.25-7.86-3.41l-1-1.68-.48-2.87s9.51-3.14,12.34,6.05l-1.56,1.58Z"/><path d="M348.78,209.35s-1.48-8.73-12.64-8.73l2.21-3.86s9,.15,12.29,7.65Z"/><path d="M347.53,191l.8.3a5.47,5.47,0,0,0,.15-2.91l-.84.2A4.71,4.71,0,0,1,347.53,191Z"/><path d="M351,193.59l.56.66-.28-.33.28.33a5.59,5.59,0,0,1,2.11-1l-.19-.83A6.38,6.38,0,0,0,351,193.59Z"/><path d="M337.12,219l2.1-1.4c2.71-1.8,3.15-3.5,3.17-3.57l-.84-.2.42.1-.42-.11a4.51,4.51,0,0,1-1.12,1.69,4.27,4.27,0,0,0,.28-2.42l-.83.2c.36,1.56-1.22,3.68-1.24,3.7Z"/><path class="cls-18" d="M346.5,202.75a19.67,19.67,0,0,1,6.19.81,15.62,15.62,0,0,0,4.33.77,16.15,16.15,0,0,0,2.78-.08c1.68-.18,5.16-.36,6.07,1.12.48.78.1,1.87-.54,2.9a9.21,9.21,0,0,1-6.63,4.31,6.4,6.4,0,0,1-3.23-.28c-2.9-1.2-8.15-6-9.08-8.4S346.5,202.75,346.5,202.75Z"/><path d="M345.83,202.06c.25-.15.54-.06.85.26a19.44,19.44,0,0,1,6.16.84,15.11,15.11,0,0,0,4.2.74,15.62,15.62,0,0,0,2.71-.08c2.43-.26,5.53-.24,6.49,1.33.5.82.32,1.94-.54,3.35a9.7,9.7,0,0,1-6.94,4.5,6.59,6.59,0,0,1-3.45-.31c-3.06-1.26-8.37-6.18-9.32-8.63a8.32,8.32,0,0,1-.37-1.1C345.51,202.49,345.56,202.22,345.83,202.06Zm19.68,3.54c-.55-.9-2.67-1.24-5.66-.92a17.38,17.38,0,0,1-2.86.08,16.11,16.11,0,0,1-4.45-.8,19.25,19.25,0,0,0-6-.78c.05.15.12.34.21.56.87,2.26,6,7,8.85,8.16a5.87,5.87,0,0,0,3,.25,8.87,8.87,0,0,0,6.32-4.1,3.34,3.34,0,0,0,.65-2.16A1,1,0,0,0,365.51,205.6Z"/><path class="cls-18" d="M342.25,200.85a19.78,19.78,0,0,0-2.19-5.85,15.62,15.62,0,0,1-1.74-4,16.71,16.71,0,0,1-.55-2.73c-.21-1.67-.83-5.11-2.47-5.65-.87-.29-1.84.32-2.7,1.18a9.23,9.23,0,0,0-2.69,7.43,6.33,6.33,0,0,0,1,3.09c1.83,2.55,7.68,6.57,10.24,6.93S342.25,200.85,342.25,200.85Z"/><path d="M329.48,191.23a9.76,9.76,0,0,1,2.81-7.78c1.17-1.15,2.23-1.59,3.14-1.28,1.75.58,2.47,3.59,2.76,6a16.66,16.66,0,0,0,.54,2.66,15.55,15.55,0,0,0,1.68,3.92,19,19,0,0,1,2.22,5.81c.39.23.53.49.45.77-.15.48-.73.48-2,.3-2.61-.37-8.61-4.43-10.53-7.11a5.73,5.73,0,0,1-.9-2.08A10.76,10.76,0,0,1,329.48,191.23Zm10.22,4a15.89,15.89,0,0,1-1.79-4.15,17.77,17.77,0,0,1-.57-2.8c-.37-3-1.18-5-2.18-5.31-.72-.24-1.63.46-2.26,1.08a8.84,8.84,0,0,0-2.56,7.09,5.87,5.87,0,0,0,.93,2.88c1.79,2.5,7.55,6.42,10,6.76l.6.07A19.13,19.13,0,0,0,339.7,195.24Z"/><path d="M348.85,204.46c.26.08,6.49,1.89,8,1.91s3,0,4.14.16a1,1,0,0,1,.84.94,1.52,1.52,0,0,1-.95,1.66c-.8.36-4.86,2.09-6.42.47a16.37,16.37,0,0,0-1.32-1.24c-.42-.36-.54-.46-.63-.82,0,0,0-.07.09-.14a3.13,3.13,0,0,1,2.52.07l.23-.37a3.44,3.44,0,0,0-3,0,.56.56,0,0,0-.26.59,1.79,1.79,0,0,0,.77,1.05,15.65,15.65,0,0,1,1.29,1.21c1.72,1.78,5.72.16,6.9-.38a1.93,1.93,0,0,0,1.2-2.12,1.46,1.46,0,0,0-1.22-1.3c-1.15-.11-2.69-.13-4.17-.16s-7.84-1.88-7.9-1.89Z"/><path d="M333.1,187.33a1.08,1.08,0,0,1,.15-.26c-.06-.25.17-.5.53-.59a1.32,1.32,0,0,1,1.19.39,4.23,4.23,0,0,1,1,2.18c.73,3.12,5.78,10.5,5.83,10.57l-.36.25c-.21-.31-5.14-7.52-5.88-10.73-.45-1.92-1.2-2.21-1.5-2.25a.51.51,0,0,0-.44.12,1.1,1.1,0,0,1-.19.52c-.45.86-1.51,2.89.45,6.26,1.45,2.5,2.41,3,2.84,3a.61.61,0,0,0,.43-.1,3.53,3.53,0,0,0-.88-2.17l.33-.28a3.79,3.79,0,0,1,1,2.57v.07l0,.05a1,1,0,0,1-.83.29c-.92-.08-2-1.16-3.2-3.22a9.45,9.45,0,0,1-1-2.51A5.57,5.57,0,0,1,333.1,187.33Zm.56-.36Z"/><circle class="cls-17" cx="354.56" cy="192.24" r="1.28"/><path d="M354.22,190.79a1.49,1.49,0,1,1-1.11,1.79A1.48,1.48,0,0,1,354.22,190.79Zm.1.41a1.07,1.07,0,1,0,1.28.8A1.08,1.08,0,0,0,354.32,191.2Z"/><circle class="cls-17" cx="347.81" cy="187.43" r="1.28"/><path d="M347.47,186a1.5,1.5,0,1,1-1.11,1.8A1.51,1.51,0,0,1,347.47,186Zm.1.42a1.07,1.07,0,1,0,1.28.8A1.06,1.06,0,0,0,347.57,186.39Z"/><path class="cls-19" d="M217.57,87.19c-3.73,1.41-11,4.75-10.22,9.08a2.26,2.26,0,0,0,.45.92c1.59,2,9,12.08,9.36,29.32,0,0,.36,5-1.07,7.51s-6.08,5.36-6.08,5.36v1.79l.71,2.5h10l5.36-1.78.36-2.15a25.91,25.91,0,0,1-2.51-7.86c-.71-4.65-.71-24.68-.71-24.68s0-12.45-2.36-18.51A2.57,2.57,0,0,0,217.57,87.19Z"/><path class="cls-20" d="M271.11,175.51s-10.73-36.11-52.56-35-56.13,30.75-60.78,44c0,0-39,12.52-41.12,50.06,0,0-29,15-13.23,55.42,0,0-13.59,16.81,6.79,40.05,0,0-3.93,28.6,26.46,40.4,0,0,5.36,29,43.62,41.48,0,0,8.58,29.67,52.92,27.17S289,415.79,289.35,399.7c0,0,40.76-13.95,32.53-40.76,0,0,33.61-12.87,18.24-49.7,0,0,15-15-4.29-37.54,0,0,7.51-31.11-18.6-41.84C317.23,229.86,318.31,195.89,271.11,175.51Z"/><g class="cls-21"><path class="cls-22" d="M224.67,137.24s28.42,9.83,28.07,34.14c0,0,31.1,10.37,28.24,46.49,0,0,13.23,6.43,13.23,26.81l-14.3,125.5s5.72,22.17-10,38.26c0,0-7.51,25.75-37.19,39.33l-39-7.51L114,379.12,82.54,295.81l16.09-82.23,35-47.56,40.76-25.74h21.46Z"/></g><path class="cls-23" d="M224.67,143s11.08,5,14.66,10.73,4.29,11.08.36,13.58-14.31,3.58-20.38,2.86-30.75,1.79-46.13,8.23-7.15-9.3-7.15-9.3,12.16-18.59,31.46-24S224.67,143,224.67,143Z"/><path class="cls-23" d="M235.75,175.14s24.67,1.43,24,17.52-22.88,20-22.88,20-52.21,2.86-95.11,11.8-.36-26.46-.36-26.46,21.09-15,61.5-21.09C202.86,176.93,221.81,174.07,235.75,175.14Z"/><path class="cls-23" d="M211.08,223.77s24.32.71,25.39,12.87-25.75,21.45-25.75,21.45S188.2,266.67,126.34,271c0,0-26.81,3.22-19.31-20.74S211.08,223.77,211.08,223.77Z"/><path class="cls-23" d="M199.28,282.76s15,3.58,15,19.31S190,324.24,190,324.24s-67.22,13.23-77.59-6.08,13.23-29,13.23-29S163.17,275.25,199.28,282.76Z"/><path class="cls-23" d="M228.6,357.85s-7.15,20-53.63,15.37-47.2-19-47.2-19-3.93-16.8,38.62-16.44,47.55,2.5,47.55,2.5S230.39,344.62,228.6,357.85Z"/><path class="cls-23" d="M213.58,384.66s10.37.36,16.81,6.44S220,404,220,404s-27.17,5.37-43.26,1.43-18.24-12.51-18.24-12.51-3.57-14.66,18.24-11.44A280,280,0,0,0,213.58,384.66Z"/><path class="cls-23" d="M200,421.85s-.72,8.58,10.37,11.44,28.24,1.43,28.24,1.43,15.38-2.86,11.8-12.16-31.82-6.79-31.82-6.79S201.07,414.7,200,421.85Z"/><path class="cls-24" d="M221.81,144s-36.47,7.87-55.42,30.39C166.39,174.42,177.47,141.89,221.81,144Z"/><path class="cls-24" d="M234,177.28S181.76,183,155.3,198.74s-27.53,24.31-27.53,24.31-6.79-7.51,19.67-27.53S234,177.28,234,177.28Z"/><path class="cls-24" d="M105.6,264.53s6.44-23.24,47.92-31.47,50-7.15,50-7.15-40-3.93-74.37,7.15S105.6,264.53,105.6,264.53Z"/><path class="cls-25" d="M194.28,283.83s-60.07-2.14-83.31,24.32C111,308.15,119.19,271.68,194.28,283.83Z"/><path class="cls-24" d="M207.51,338.54s-54.71,1.07-71.16,9.65c0,0-6.79,3.22-7.15,7.87,0,0-7.86-11.44,14-15.73S207.51,338.54,207.51,338.54Z"/><path class="cls-25" d="M210.37,386.45s-31.11-1.43-35.76-.71-10.73,1.07-13.23,6.79c0,0-3.93-10.37,10.73-10.37S209.65,385,210.37,386.45Z"/><path class="cls-24" d="M204.29,424.35s11.44,12.16,35.4,9.66C239.69,434,215.37,441.87,204.29,424.35Z"/><polygon class="cls-26" points="148.51 305.64 154.95 315.3 151.01 325.31 137.07 326.03 129.56 317.8 133.49 305.64 148.51 305.64"/><polygon class="cls-26" points="147.08 292.77 144.94 298.14 148.15 302.79 155.66 303.14 158.52 298.14 155.3 292.42 147.08 292.77"/><polygon class="cls-26" points="171.39 301.71 169.96 306 172.11 311.37 177.83 312.44 180.69 307.08 178.19 302.43 171.39 301.71"/><polygon class="cls-26" points="202.14 238.07 200 247.01 204.29 252.73 212.51 253.8 215.73 246.65 211.44 237.71 202.14 238.07"/><polygon class="cls-27" points="302.62 373.22 299.4 378.23 302.26 382.88 308.34 382.88 311.2 378.59 308.34 372.51 302.62 373.22"/><path class="cls-28" d="M279.51,236.82a50.24,50.24,0,0,0-38.93,13.08c-11.32,10.34-25.28,29.1-25.11,58.64.19,34.57,20.73,51.72,33.16,58.93a39.19,39.19,0,0,0,20.45,5.36c14.14-.3,35.76-1.93,48.91-35,11.82-29.74,5.06-66-9.3-85.82C300.21,240.32,286.31,237.52,279.51,236.82Z"/><path class="cls-29" d="M288.36,241.19a41.65,41.65,0,0,0-36.69,5.48,62.71,62.71,0,0,0-27,43.84c-5.51,39,12.49,58.54,12.49,58.54s11.76,19.15,33.8,20.95,38.2-21.32,38.2-21.32,16.9-20.59,7.71-71.54C312.73,254.3,299.68,245,288.36,241.19Z"/><path class="cls-30" d="M285.35,246.24A37.37,37.37,0,0,0,252,251.3a58,58,0,0,0-24.56,40.51c-5,36.06,11.35,54.09,11.35,54.09s10.68,17.69,30.71,19.36,34.73-19.7,34.73-19.7,15.36-19,7-66.11C307.5,258.35,295.64,249.71,285.35,246.24Z"/><path class="cls-31" d="M281,246.1a34.58,34.58,0,0,0-30.88,4.69,53.74,53.74,0,0,0-22.76,37.51c-4.63,33.4,10.52,50.1,10.52,50.1s9.89,16.39,28.45,17.93,32.16-18.24,32.16-18.24,14.22-17.63,6.49-61.23C301.51,257.32,290.53,249.32,281,246.1Z"/><path class="cls-32" d="M276.52,258a30.88,30.88,0,0,0-26,3.7,42.21,42.21,0,0,0-19.19,29.58c-3.91,26.34,8.87,39.5,8.87,39.5s8.34,12.93,24,14.14,27.12-14.38,27.12-14.38,12-13.9,5.47-48.28C293.82,266.89,284.56,260.58,276.52,258Z"/><path class="cls-33" d="M267.93,174.42s-83.66-4.64-107.26,8.94C160.67,183.36,208.58,157.62,267.93,174.42Z"/><path class="cls-33" d="M307.62,224.84s-26.46-10.37-86.53-7.87S119.91,232.7,119.91,232.7s49.34-23.59,143-19.3C262.93,213.4,291.89,215.9,307.62,224.84Z"/><path class="cls-33" d="M104.53,288.13s44.3-30.92,122.62-21.18C227.15,267,155,264.53,104.53,288.13Z"/><path class="cls-33" d="M113.47,330S193.2,332.1,220,325C220,325,193.56,341.76,113.47,330Z"/><path class="cls-33" d="M316.56,359.28s-46.82,17.52-90.46,17.16-68.29,0-87.6-7.51c0,0,26.46,13.95,83.67,11.44S300.11,366.79,316.56,359.28Z"/><path class="cls-33" d="M285.81,399.32S234,419,184.27,410.41C184.27,410.41,241.83,426.14,285.81,399.32Z"/><path class="cls-17" d="M174.65,397.92a7.23,7.23,0,0,1,7.93-6.17,8.37,8.37,0,0,1,7.93,7.05s.44,6.61-4.41,8.37L183,410.25s-1.76,4.85-9.25,5.73-10.57-4.41-10.57-4.41-3.09-7.93,4.84-12.33l2.65-1.32Z"/><path d="M172.14,416.59a11,11,0,0,1-9.39-4.76l0-.07c0-.08-3.16-8.4,5.07-13l2.77-1.39h3.67a7.66,7.66,0,0,1,8.38-6.17,9,9,0,0,1,8.41,7.5c0,.32.41,7-4.63,8.88l-2.93,2.93c-.33.78-2.46,5.11-9.63,5.95A14.28,14.28,0,0,1,172.14,416.59Zm-8.47-5.24c.29.47,3.23,4.91,10,4.11,7-.83,8.75-5.2,8.82-5.39l0-.1,3.25-3.25.11,0c4.42-1.61,4.06-7.78,4.06-7.85a7.79,7.79,0,0,0-7.44-6.56,6.66,6.66,0,0,0-7.39,5.72l-.06.45h-4.29l-2.54,1.26A9.38,9.38,0,0,0,163.67,411.35Z"/><path d="M162.76,407.17s6.56.3,6.14,8.3l2.25.72,3.5-.21s1.09-12-10.46-12.84l-1.43,2.27Z"/><path d="M168,399.68s10.65-.65,13.7,12.45l3.92-3.64s-2.64-10.57-12.33-12.33Z"/><path d="M189.91,396.15l-.57-.87a6.72,6.72,0,0,1,3.37-1v1A5.6,5.6,0,0,0,189.91,396.15Z"/><path d="M185.93,392.77l-.92-.47.46.24-.46-.24a6.82,6.82,0,0,0,.57-2.75h1A7.47,7.47,0,0,1,185.93,392.77Z"/><path d="M159.88,416l1.07-2.85c1.38-3.67,3.26-4.64,3.34-4.68l.46.92-.23-.46.24.46a5.43,5.43,0,0,0-1.68,1.78,5.15,5.15,0,0,1,2.76-1v1c-1.93,0-4,2.43-4,2.46Z"/><path class="cls-18" d="M176.41,400.56a23.94,23.94,0,0,0-2.64-7.05,18.84,18.84,0,0,1-2.09-4.86,19.56,19.56,0,0,1-.66-3.29c-.25-2-1-6.16-3-6.82-1-.35-2.21.39-3.25,1.42a11.16,11.16,0,0,0-3.25,9,7.64,7.64,0,0,0,1.22,3.71c2.2,3.09,9.25,7.93,12.33,8.37S176.41,400.56,176.41,400.56Z"/><path d="M176.4,401.65a9.39,9.39,0,0,1-1.38-.14c-3.14-.44-10.37-5.34-12.68-8.58a7.91,7.91,0,0,1-1.31-4,11.74,11.74,0,0,1,3.39-9.38c1.42-1.39,2.69-1.91,3.79-1.54,2.1.7,3,4.32,3.32,7.24a20.69,20.69,0,0,0,2.67,7.94,23.3,23.3,0,0,1,2.67,7c.46.28.64.6.53.94S177,401.65,176.4,401.65ZM167.51,379a4,4,0,0,0-2.36,1.36,10.68,10.68,0,0,0-3.09,8.54,7,7,0,0,0,1.12,3.46c2.16,3,9.1,7.75,12,8.16l.73.09a23.26,23.26,0,0,0-2.55-6.78,19.42,19.42,0,0,1-2.16-5,21.82,21.82,0,0,1-.68-3.37c-.44-3.6-1.42-6-2.62-6.39A1.19,1.19,0,0,0,167.51,379Z"/><path class="cls-18" d="M179.8,405a23.77,23.77,0,0,1,7.46,1,18.79,18.79,0,0,0,5.21.94,20.93,20.93,0,0,0,3.36-.1c2-.21,6.22-.42,7.32,1.36.57.93.11,2.24-.66,3.49a11.08,11.08,0,0,1-8,5.18,7.6,7.6,0,0,1-3.89-.34c-3.5-1.45-9.81-7.22-10.94-10.12S179.8,405,179.8,405Z"/><path d="M193.09,417.49a7,7,0,0,1-2.68-.48c-3.68-1.52-10.08-7.46-11.22-10.42-.55-1.41-.71-2.1-.19-2.4.3-.18.65-.08,1,.31a23.3,23.3,0,0,1,7.42,1,18.44,18.44,0,0,0,5.05.9,20.36,20.36,0,0,0,3.28-.09c2.92-.31,6.65-.29,7.81,1.6.6,1,.38,2.34-.65,4a11.74,11.74,0,0,1-8.37,5.43A11,11,0,0,1,193.09,417.49ZM179.9,405.54c.07.18.15.4.25.68,1.06,2.72,7.23,8.41,10.66,9.83a7.06,7.06,0,0,0,3.62.31,10.66,10.66,0,0,0,7.62-4.94c.56-.91,1.13-2.17.65-2.95-.66-1.08-3.21-1.5-6.81-1.11a21.35,21.35,0,0,1-3.45.1,19.56,19.56,0,0,1-5.36-1A22.62,22.62,0,0,0,179.9,405.54Z"/><path d="M173.76,398.27c-.16-.29-4-7.1-4.43-8.88s-.88-3.51-1.31-4.82a1.25,1.25,0,0,0-1.34-.73,1.84,1.84,0,0,0-1.69,1.58c-.2,1-1.12,6.26,1.2,7.65a18.81,18.81,0,0,1,1.82,1.22c.53.39.69.51,1.13.51,0,0,.09,0,.15-.14a3.83,3.83,0,0,0-.77-3l.37-.36a4.2,4.2,0,0,1,.88,3.51.66.66,0,0,1-.63.45,2.09,2.09,0,0,1-1.44-.61,17.45,17.45,0,0,0-1.77-1.18c-2.56-1.54-1.75-6.67-1.44-8.21a2.34,2.34,0,0,1,2.16-2,1.74,1.74,0,0,1,1.86,1.07c.44,1.33.89,3.13,1.32,4.86s4.35,8.68,4.39,8.75Z"/><path d="M193.45,413.9a11.09,11.09,0,0,1-3.24-.54c-2.74-.84-4.3-1.81-4.65-2.87a1.18,1.18,0,0,1,.12-1.05l0-.07.08,0a4.51,4.51,0,0,1,3.28.45l-.23.46a4.27,4.27,0,0,0-2.79-.45.71.71,0,0,0,0,.53c.17.51,1,1.5,4.3,2.53,4.49,1.38,6.58-.42,7.47-1.19.25-.21.4-.34.56-.36a.63.63,0,0,0,0-.55c-.12-.34-.67-1.14-3.05-1.14-4,0-13.77-3.82-14.19-4l.19-.48c.1,0,10.13,3.94,14,3.94a5.2,5.2,0,0,1,2.85.64,1.62,1.62,0,0,1,.77,1.3c0,.45-.23.78-.53.78a3.35,3.35,0,0,1-.28.25A6.72,6.72,0,0,1,193.45,413.9Zm5-2.59Z"/><circle class="cls-17" cx="186.54" cy="388.23" r="1.54"/><path d="M186.54,390a1.8,1.8,0,1,1,1.8-1.8A1.81,1.81,0,0,1,186.54,390Zm0-3.08a1.28,1.28,0,1,0,1.29,1.28A1.28,1.28,0,0,0,186.54,387Z"/><circle class="cls-17" cx="194.03" cy="394.84" r="1.54"/><path d="M194,396.64a1.81,1.81,0,1,1,1.8-1.81A1.81,1.81,0,0,1,194,396.64Zm0-3.09a1.29,1.29,0,1,0,1.28,1.28A1.28,1.28,0,0,0,194,393.55Z"/><path class="cls-17" d="M326.71,331.68a5.74,5.74,0,0,0-6.3-4.9,6.65,6.65,0,0,0-6.3,5.6s-.35,5.25,3.5,6.65l2.45,2.45s1.4,3.84,7.35,4.54,8.4-3.5,8.4-3.5a7.92,7.92,0,0,0-3.85-9.79l-2.1-1.05Z"/><path d="M327.36,346.43c-5.69-.67-7.39-4.1-7.65-4.72l-2.32-2.33c-4-1.53-3.7-6.81-3.68-7.06a7.09,7.09,0,0,1,6.68-5.95,6.07,6.07,0,0,1,6.66,4.9H330l2.2,1.1a8.37,8.37,0,0,1,4,10.3l0,.06a8.79,8.79,0,0,1-7.46,3.78A10.6,10.6,0,0,1,327.36,346.43Zm4.42-13.34-2-1h-3.41l-.05-.36a5.26,5.26,0,0,0-5.86-4.54,6.19,6.19,0,0,0-5.92,5.21c0,.05-.28,5,3.23,6.24l.09,0,2.58,2.58,0,.08c.05.15,1.41,3.63,7,4.29,5.41.63,7.75-2.9,8-3.28A7.46,7.46,0,0,0,331.78,333.09Z"/><path d="M336.16,339s-5.21.23-4.88,6.59l-1.79.57-2.78-.17s-.87-9.55,8.32-10.2l1.13,1.81Z"/><path d="M332,333.08s-8.46-.52-10.88,9.89L318,340.08s2.1-8.4,9.8-9.8Z"/><path d="M314.59,330.27l.45-.69a5.26,5.26,0,0,0-2.68-.76v.82A4.48,4.48,0,0,1,314.59,330.27Z"/><path d="M317.75,327.59l.73-.38-.36.19.36-.19A5.43,5.43,0,0,1,318,325h-.83A6,6,0,0,0,317.75,327.59Z"/><path d="M338.44,346l-.84-2.26c-1.1-2.92-2.59-3.69-2.66-3.72l-.36.73.18-.36-.19.36a4.33,4.33,0,0,1,1.33,1.41,4.05,4.05,0,0,0-2.19-.79v.83c1.53,0,3.17,1.93,3.18,1.95Z"/><path class="cls-18" d="M325.31,333.78a19,19,0,0,1,2.1-5.6,15.12,15.12,0,0,0,1.66-3.87,16.54,16.54,0,0,0,.53-2.61c.19-1.61.78-4.9,2.36-5.42.83-.28,1.76.31,2.59,1.13a8.85,8.85,0,0,1,2.57,7.12,6.11,6.11,0,0,1-1,3c-1.75,2.45-7.35,6.3-9.8,6.65S325.31,333.78,325.31,333.78Z"/><path d="M324.52,334.25c-.08-.27.06-.52.43-.74a18.46,18.46,0,0,1,2.12-5.56,15.1,15.1,0,0,0,1.61-3.75,16,16,0,0,0,.51-2.55c.28-2.32,1-5.2,2.64-5.76.87-.29,1.88.12,3,1.23a9.3,9.3,0,0,1,2.69,7.45,6.49,6.49,0,0,1-1,3.15c-1.84,2.57-7.59,6.46-10.08,6.81a7.62,7.62,0,0,1-1.1.11C324.86,334.64,324.61,334.53,324.52,334.25Zm7.57-17.58c-.95.32-1.73,2.22-2.08,5.08a17.64,17.64,0,0,1-.54,2.68,15.62,15.62,0,0,1-1.72,4,18.3,18.3,0,0,0-2,5.38l.57-.07c2.3-.33,7.81-4.08,9.53-6.48a5.62,5.62,0,0,0,.88-2.75,8.5,8.5,0,0,0-2.45-6.79,3.21,3.21,0,0,0-1.87-1.08A1,1,0,0,0,332.09,316.67Z"/><path class="cls-18" d="M322.62,337.32a18.91,18.91,0,0,0-5.93.78,15,15,0,0,1-4.14.74,15.89,15.89,0,0,1-2.67-.07c-1.6-.17-4.94-.34-5.81,1.07-.45.75-.09,1.79.52,2.78a8.84,8.84,0,0,0,6.35,4.12,6.07,6.07,0,0,0,3.09-.28c2.78-1.15,7.8-5.73,8.69-8S322.62,337.32,322.62,337.32Z"/><path d="M310.89,347.14a9.28,9.28,0,0,1-6.65-4.31c-.82-1.34-1-2.42-.52-3.2.92-1.5,3.88-1.52,6.21-1.27a15.3,15.3,0,0,0,2.6.07,14.53,14.53,0,0,0,4-.72,18.77,18.77,0,0,1,5.89-.81c.3-.3.58-.38.82-.24.41.24.28.78-.15,1.91-.91,2.35-6,7.06-8.92,8.27a5.43,5.43,0,0,1-2.13.39A8.09,8.09,0,0,1,310.89,347.14Zm5.95-8.65a15.77,15.77,0,0,1-4.26.76,17,17,0,0,1-2.74-.07c-2.87-.31-4.89,0-5.42.88-.38.62.08,1.62.52,2.34a8.48,8.48,0,0,0,6.06,3.93,5.62,5.62,0,0,0,2.88-.25c2.72-1.12,7.62-5.65,8.46-7.81.09-.22.15-.4.2-.54A18.06,18.06,0,0,0,316.84,338.49Z"/><path d="M327.42,332c.13-.23,3.16-5.64,3.52-7.05s.69-2.79,1-3.83a1,1,0,0,1,1.06-.57,1.43,1.43,0,0,1,1.34,1.24c.17.83.89,5-.95,6.09a14.42,14.42,0,0,0-1.44,1c-.43.31-.55.41-.9.41,0,0-.07,0-.12-.11a3,3,0,0,1,.61-2.34l-.29-.29a3.31,3.31,0,0,0-.7,2.78.53.53,0,0,0,.5.37,1.64,1.64,0,0,0,1.14-.49,16.6,16.6,0,0,1,1.41-.94c2-1.22,1.39-5.3,1.15-6.52a1.89,1.89,0,0,0-1.72-1.58,1.4,1.4,0,0,0-1.48.86c-.35,1.05-.71,2.48-1,3.86s-3.45,6.9-3.48,6.95Z"/><path d="M308,342.92l-.22-.19c-.24,0-.42-.27-.42-.62a1.25,1.25,0,0,1,.62-1,4,4,0,0,1,2.25-.51c3.08,0,11.05-3.1,11.13-3.14l.15.39c-.33.13-8.12,3.16-11.28,3.16-1.89,0-2.32.64-2.42.91a.51.51,0,0,0,0,.43,1.06,1.06,0,0,1,.45.29c.71.61,2.36,2,5.93.94,2.65-.81,3.28-1.6,3.42-2a.58.58,0,0,0,0-.42,3.41,3.41,0,0,0-2.22.35l-.18-.36a3.56,3.56,0,0,1,2.6-.36l.06,0,0,.05a.91.91,0,0,1,.09.83c-.27.85-1.51,1.62-3.69,2.29a8.87,8.87,0,0,1-2.57.42A5.3,5.3,0,0,1,308,342.92Zm-.21-.6h0Z"/><circle class="cls-17" cx="317.26" cy="323.98" r="1.22"/><path d="M315.83,324a1.43,1.43,0,1,1,1.43,1.43A1.43,1.43,0,0,1,315.83,324Zm.41,0a1,1,0,1,0,1-1A1,1,0,0,0,316.24,324Z"/><circle class="cls-17" cx="311.31" cy="329.23" r="1.22"/><path d="M309.88,329.23a1.44,1.44,0,1,1,1.43,1.43A1.44,1.44,0,0,1,309.88,329.23Zm.42,0a1,1,0,1,0,1-1A1,1,0,0,0,310.3,329.23Z"/><path class="cls-17" d="M259.66,285.29a3.37,3.37,0,0,1,3.69-2.87,3.9,3.9,0,0,1,3.7,3.28s.2,3.08-2.05,3.9L263.56,291s-.82,2.25-4.31,2.66a4.94,4.94,0,0,1-4.92-2.05,4.64,4.64,0,0,1,2.26-5.74l1.23-.62Z"/><path d="M258.49,294a5.12,5.12,0,0,1-4.37-2.22l0,0a4.93,4.93,0,0,1,2.37-6l1.29-.65h1.71a3.56,3.56,0,0,1,3.9-2.87,4.18,4.18,0,0,1,3.92,3.49c0,.15.18,3.24-2.16,4.14l-1.36,1.36c-.16.37-1.15,2.38-4.49,2.77A7.29,7.29,0,0,1,258.49,294Zm-3.94-2.44a4.68,4.68,0,0,0,4.67,1.91c3.29-.38,4.08-2.42,4.11-2.51l0-.05,1.51-1.51.05,0c2.07-.75,1.9-3.62,1.9-3.65a3.64,3.64,0,0,0-3.47-3.06,3.11,3.11,0,0,0-3.44,2.66l0,.21h-2l-1.18.59A4.37,4.37,0,0,0,254.55,291.55Z"/><path d="M254.12,289.6s3.06.14,2.86,3.86l1,.34,1.63-.1s.51-5.6-4.87-6l-.67,1.06Z"/><path d="M256.59,286.11s5-.3,6.37,5.8l1.83-1.69s-1.23-4.93-5.74-5.75Z"/><path d="M266.77,284.47l-.27-.4a3,3,0,0,1,1.57-.46v.49A2.57,2.57,0,0,0,266.77,284.47Z"/><path d="M264.91,282.9l-.42-.23.21.12-.21-.11a3.31,3.31,0,0,0,.26-1.29h.49A3.43,3.43,0,0,1,264.91,282.9Z"/><path d="M252.79,293.71l.49-1.32a3.91,3.91,0,0,1,1.56-2.19l.21.44-.11-.22.11.22a2.45,2.45,0,0,0-.77.82,2.37,2.37,0,0,1,1.28-.46v.48c-.9,0-1.86,1.13-1.87,1.15Z"/><path class="cls-18" d="M260.48,286.52a11.1,11.1,0,0,0-1.23-3.28,9.9,9.9,0,0,1-1.28-3.8c-.11-.94-.46-2.87-1.38-3.17-.49-.16-1,.18-1.52.66a5.18,5.18,0,0,0-1.51,4.17,3.65,3.65,0,0,0,.56,1.73c1,1.44,4.31,3.69,5.75,3.9S260.48,286.52,260.48,286.52Z"/><path d="M260.48,287c-.17,0-.38,0-.65-.06-1.46-.21-4.82-2.49-5.9-4a3.72,3.72,0,0,1-.61-1.85,5.47,5.47,0,0,1,1.58-4.36c.66-.65,1.25-.89,1.76-.72,1,.32,1.38,2,1.55,3.37a9.48,9.48,0,0,0,.3,1.5,9,9,0,0,0,.94,2.2,10.75,10.75,0,0,1,1.25,3.26c.21.13.29.27.24.43S260.75,287,260.48,287Zm-4.15-10.56a1.9,1.9,0,0,0-1.09.63,5,5,0,0,0-1.44,4,3.26,3.26,0,0,0,.52,1.61c1,1.41,4.24,3.61,5.58,3.8l.34,0a10.85,10.85,0,0,0-1.19-3.16,9,9,0,0,1-1-2.33,10.13,10.13,0,0,1-.32-1.57c-.2-1.68-.66-2.79-1.22-3Z"/><path class="cls-18" d="M262.06,288.6a11.22,11.22,0,0,1,3.48.46,8.75,8.75,0,0,0,2.42.43,10.3,10.3,0,0,0,1.57,0c.94-.1,2.89-.2,3.4.63.27.43.06,1.05-.3,1.63a5.2,5.2,0,0,1-3.72,2.41,3.6,3.6,0,0,1-1.82-.16c-1.63-.67-4.57-3.36-5.09-4.71S262.06,288.6,262.06,288.6Z"/><path d="M268.25,294.41a3.24,3.24,0,0,1-1.25-.23c-1.71-.71-4.69-3.47-5.23-4.85-.25-.66-.32-1-.08-1.12s.3,0,.48.15a10.63,10.63,0,0,1,3.45.47,8.52,8.52,0,0,0,2.36.42,8.73,8.73,0,0,0,1.52,0c1.36-.15,3.1-.14,3.64.74.28.46.18,1.1-.31,1.88a5.45,5.45,0,0,1-3.89,2.53A5.6,5.6,0,0,1,268.25,294.41Zm-6.14-5.57c0,.08.07.19.11.32.5,1.26,3.37,3.92,5,4.58a3.31,3.31,0,0,0,1.68.14,4.93,4.93,0,0,0,3.55-2.3c.26-.43.53-1,.31-1.37s-1.5-.7-3.18-.52a9.66,9.66,0,0,1-1.6,0,9,9,0,0,1-2.5-.45A10.53,10.53,0,0,0,262.11,288.84Z"/><path d="M259.25,285.45a34.24,34.24,0,0,1-2.06-4.13c-.21-.81-.41-1.64-.62-2.25a.57.57,0,0,0-.62-.33.84.84,0,0,0-.78.73c-.1.48-.53,2.92.55,3.56.42.26.67.44.85.57s.32.24.53.24c0,0,0,0,.07-.07a1.83,1.83,0,0,0-.36-1.37l.17-.17a2,2,0,0,1,.41,1.64.32.32,0,0,1-.29.21.94.94,0,0,1-.67-.29c-.18-.12-.42-.3-.83-.55-1.19-.71-.81-3.1-.67-3.82a1.09,1.09,0,0,1,1-.92.8.8,0,0,1,.86.5c.21.62.42,1.45.62,2.26a38.2,38.2,0,0,0,2,4.08Z"/><path d="M268.42,292.73a5.09,5.09,0,0,1-1.51-.25c-1.28-.39-2-.84-2.17-1.34a.53.53,0,0,1,.06-.48l0,0,0,0a2.13,2.13,0,0,1,1.53.22l-.11.21a2,2,0,0,0-1.3-.21.36.36,0,0,0,0,.25c.08.23.44.7,2,1.17a3.24,3.24,0,0,0,3.48-.55c.11-.1.18-.16.26-.17a.29.29,0,0,0,0-.25c-.05-.16-.31-.53-1.42-.53-1.84,0-6.41-1.78-6.6-1.86l.08-.22c.05,0,4.72,1.83,6.52,1.83a2.49,2.49,0,0,1,1.33.3.76.76,0,0,1,.36.61c0,.21-.11.36-.25.36l-.13.12A3.13,3.13,0,0,1,268.42,292.73Zm2.32-1.2Z"/><circle class="cls-17" cx="265.2" cy="280.78" r="0.72"/><path d="M265.2,281.62a.84.84,0,1,1,.84-.84A.85.85,0,0,1,265.2,281.62Zm0-1.44a.6.6,0,1,0,.6.6A.6.6,0,0,0,265.2,280.18Z"/><circle class="cls-17" cx="268.69" cy="283.86" r="0.72"/><path d="M268.69,284.69a.84.84,0,1,1,.84-.83A.84.84,0,0,1,268.69,284.69Zm0-1.43a.6.6,0,0,0-.6.6.6.6,0,0,0,1.2,0A.6.6,0,0,0,268.69,283.26Z"/><path class="cls-34" d="M116.45,188.63s-1.21-13.87,11.46-12.66,32.88,42,13.27,57.3S99,207.94,102,195.87,116.45,188.63,116.45,188.63Z"/><path class="cls-35" d="M121.28,182s5.43-6.64,12.06,1.2,13.88,22.32,7.84,33.18a50.66,50.66,0,0,0-8.56-31.28,11.75,11.75,0,0,1-.69-1.13C131.26,182.74,128.71,179.52,121.28,182Z"/><path class="cls-34" d="M217.14,27.21s-7.29,4.53-10.16-2.78,14-29.78,27.82-23.26-2.17,30.28-9.64,32S217.14,27.21,217.14,27.21Z"/><path class="cls-35" d="M212.15,26.4s-5.16-1.13-2.7-7,8.41-13.85,16.06-13.55A31.27,31.27,0,0,0,210.69,19.3a6.12,6.12,0,0,1-.43.69C209.78,20.71,208.71,23,212.15,26.4Z"/><path class="cls-34" d="M432.36,69.64s-5.76,6.37.91,10.5,31.8-8.4,27.87-23.22-30.18-3.28-33.2,3.77S432.36,69.64,432.36,69.64Z"/><path class="cls-35" d="M432.26,74.7s.2,5.28,6.38,3.9,15.13-5.8,16.21-13.38A31.27,31.27,0,0,1,439,77.4c-.26.09-.51.19-.76.3C437.44,78.05,435,78.69,432.26,74.7Z"/><path class="cls-36" d="M0,108.91s21.13,28.27,25.28,40.14l46.8-5.38s3.5,4,14.49,2,20.65-.61,26.22,12.47S102.09,180,102.09,180s18.21,8.61,28.37,32.47c0,0-.73-15.6-21.34-34.1,0,0,31.9-19-6.71-43.51,0,0,27.92-9.16,37.26-8.59s10,8.48,48.33-6S313.86,78.44,322.88,71.87s36.72-18.37,63.6-4.36,70.09-6.21,70.09-6.21-40.46,18.14-64.25-3.55c0,0-24.46-10.49-29.94-19.07S373,25.09,387,28.19s7.47.46,7.47.46l-13.82-6.84s-21.3-7.3-53.09,16.24S215.33,84,215.33,84L178.84,92.3s-24.38.38,6-24.37l40-17S205.48,18.22,232.3,8.62c0,0-26.47,4-18.64,35.21,0,0-6.17,9-35,20.35a180.59,180.59,0,0,0-23.77,21C143.69,97.27,0,108.91,0,108.91Z"/><path class="cls-37" d="M15,114.34s126-16,137-21l20,3,87-19,57-28,29-15,13,5-12,15-30,16-65,25-45,11-46,20-16-4-33,6-19,3-2,7H63l-24,1-9,3Z"/></g></g></svg>